<svg xmlns="http://www.w3.org/2000/svg"><defs>
        <clipPath id="a">
            <path d="M763 1590h-34v4c0 7.25 5 10 5 10 .142.12 1 1.12 1 2 0 1.1-.895 2-2 2h-26c-1.105 0-2-.9-2-2 0-.85.843-1.94 1-2 0 0 5-2.67 5-10v-4h-34c-3.314 0-6-2.69-6-6v-58c0-3.31 2.686-6 6-6h86c3.314 0 6 2.69 6 6v58c0 3.31-2.686 6-6 6zm4-64a4 4 0 0 0-4-4h-86a4 4 0 0 0-4 4v58a4 4 0 0 0 4 4h86a4 4 0 0 0 4-4zm-5 53h-84c-1.105 0-2-.9-2-2v-50c0-1.1.895-2 2-2h84c1.105 0 2 .9 2 2v50c0 1.1-.895 2-2 2zm0-52h-84v50h84zm-35 65v-2h-14v2c0 10.14-4 12-4 12-.459.31-2 1.22-2 1.5s.448.5 1 .5h24c.552 0 1-.22 1-.5s-1.479-1.13-2-1.5c0 0-4-1.87-4-12zm-28-46h42c.552 0 1 .45 1 1s-.448 1-1 1h-42c-.552 0-1-.45-1-1s.448-1 1-1zm0 10h42c.552 0 1 .45 1 1s-.448 1-1 1h-42c-.552 0-1-.45-1-1s.448-1 1-1zm0 5h41c.552 0 1 .45 1 1s-.448 1-1 1h-41c-.552 0-1-.45-1-1s.448-1 1-1zm0-10h39c.552 0 1 .45 1 1s-.448 1-1 1h-39c-.552 0-1-.45-1-1s.448-1 1-1zm5-14h32c.552 0 1 .45 1 1s-.448 1-1 1h-32c-.552 0-1-.45-1-1s.448-1 1-1zm-5 29h26c.552 0 1 .45 1 1s-.448 1-1 1h-26c-.552 0-1-.45-1-1s.448-1 1-1z" fill="#fff"/>
        </clipPath>
    
        <clipPath id="a">
            <path d="M1013 1590h-39v4c0 1.588.15 2.939.399 4.084 11.154.43 19.601 2.469 19.601 4.916 0 2.76-10.745 5-24 5s-24-2.24-24-5c0-2.447 8.45-4.486 19.606-4.916.247-1.143.394-2.493.394-4.084v-4h-39c-3.314 0-6-2.69-6-6v-58c0-3.31 2.686-6 6-6h86c3.31 0 6 2.69 6 6v58c0 3.31-2.69 6-6 6zm4-64c0-2.21-1.79-4-4-4h-86a4 4 0 0 0-4 4v58a4 4 0 0 0 4 4h86c2.21 0 4-1.79 4-4zm-5 59h-84c-1.105 0-2-.9-2-2v-56c0-1.1.895-2 2-2h84c1.1 0 2 .9 2 2v56c0 1.1-.9 2-2 2zm0-58h-84v56h84zm-47 73.085c-9.184.32-16 1.502-16 2.915 0 1.66 9.402 3 21 3s21-1.34 21-3c0-1.413-6.812-2.594-15.991-2.914.559 1.374 1.282 2.306 1.991 2.914-.675.18-1.075.88-2 1-1.475-1.69-3-5.52-3-12v-2h-4v2c0 6.48-1.526 10.31-3 12-.921-.12-1.327-.83-2-1 .713-.606 1.44-1.534 2-2.915zm17.726-48.817c-7.03-7.027-18.424-7.027-25.452 0l-.002.002a1 1 0 0 1-1.414 0 .994.994 0 0 1 0-1.41c7.81-7.81 20.474-7.81 28.284 0a.994.994 0 0 1 0 1.41 1 1 0 0 1-1.414 0l-.002-.002zm-3.57 3.505c-5.068-5.03-13.244-5.03-18.313 0a1.003 1.003 0 0 1-1.45.037c-.39-.39-.39-1.03 0-1.42 5.858-5.85 15.356-5.85 21.214 0a1.002 1.002 0 1 1-1.45 1.383zm-2.078 2.147l-.009.008.002.002a.994.994 0 0 1 0 1.41 1 1 0 0 1-1.519-.122 8.014 8.014 0 0 0-11.104 0 1 1 0 0 1-1.519.122.994.994 0 0 1 0-1.41l.001-.002-.008-.008c3.909-3.91 10.247-3.91 14.156 0zM970 1560a4 4 0 1 1 0 8 4 4 0 0 1 0-8zm-2 4c0 1.1.895 2 2 2s2-.9 2-2-.895-2-2-2-2 .9-2 2z" fill="#fff"/>
        </clipPath>
    </defs><symbol id="icon-desktop" viewBox="0 0 98 88">
    
    <path d="M92 70H58v4c0 7.25 5 10 5 10 .142.12 1 1.12 1 2 0 1.1-.895 2-2 2H36c-1.105 0-2-.9-2-2 0-.85.843-1.94 1-2 0 0 5-2.67 5-10v-4H6c-3.314 0-6-2.69-6-6V6c0-3.31 2.686-6 6-6h86c3.314 0 6 2.69 6 6v58c0 3.31-2.686 6-6 6zm4-64a4 4 0 0 0-4-4H6a4 4 0 0 0-4 4v58a4 4 0 0 0 4 4h86a4 4 0 0 0 4-4zm-5 53H7c-1.105 0-2-.9-2-2V7c0-1.1.895-2 2-2h84c1.105 0 2 .9 2 2v50c0 1.1-.895 2-2 2zm0-52H7v50h84zM56 72v-2H42v2c0 10.14-4 12-4 12-.459.31-2 1.22-2 1.5s.448.5 1 .5h24c.552 0 1-.22 1-.5s-1.479-1.13-2-1.5c0 0-4-1.87-4-12zM28 26h42c.552 0 1 .45 1 1s-.448 1-1 1H28c-.552 0-1-.45-1-1s.448-1 1-1zm0 10h42c.552 0 1 .45 1 1s-.448 1-1 1H28c-.552 0-1-.45-1-1s.448-1 1-1zm0 5h41c.552 0 1 .45 1 1s-.448 1-1 1H28c-.552 0-1-.45-1-1s.448-1 1-1zm0-10h39c.552 0 1 .45 1 1s-.448 1-1 1H28c-.552 0-1-.45-1-1s.448-1 1-1zm5-14h32c.552 0 1 .45 1 1s-.448 1-1 1H33c-.552 0-1-.45-1-1s.448-1 1-1zm-5 29h26c.552 0 1 .45 1 1s-.448 1-1 1H28c-.552 0-1-.45-1-1s.448-1 1-1z"/>
    <path d="M763 1590h-34v4c0 7.25 5 10 5 10 .142.12 1 1.12 1 2 0 1.1-.895 2-2 2h-26c-1.105 0-2-.9-2-2 0-.85.843-1.94 1-2 0 0 5-2.67 5-10v-4h-34c-3.314 0-6-2.69-6-6v-58c0-3.31 2.686-6 6-6h86c3.314 0 6 2.69 6 6v58c0 3.31-2.686 6-6 6zm4-64a4 4 0 0 0-4-4h-86a4 4 0 0 0-4 4v58a4 4 0 0 0 4 4h86a4 4 0 0 0 4-4zm-5 53h-84c-1.105 0-2-.9-2-2v-50c0-1.1.895-2 2-2h84c1.105 0 2 .9 2 2v50c0 1.1-.895 2-2 2zm0-52h-84v50h84zm-35 65v-2h-14v2c0 10.14-4 12-4 12-.459.31-2 1.22-2 1.5s.448.5 1 .5h24c.552 0 1-.22 1-.5s-1.479-1.13-2-1.5c0 0-4-1.87-4-12zm-28-46h42c.552 0 1 .45 1 1s-.448 1-1 1h-42c-.552 0-1-.45-1-1s.448-1 1-1zm0 10h42c.552 0 1 .45 1 1s-.448 1-1 1h-42c-.552 0-1-.45-1-1s.448-1 1-1zm0 5h41c.552 0 1 .45 1 1s-.448 1-1 1h-41c-.552 0-1-.45-1-1s.448-1 1-1zm0-10h39c.552 0 1 .45 1 1s-.448 1-1 1h-39c-.552 0-1-.45-1-1s.448-1 1-1zm5-14h32c.552 0 1 .45 1 1s-.448 1-1 1h-32c-.552 0-1-.45-1-1s.448-1 1-1zm-5 29h26c.552 0 1 .45 1 1s-.448 1-1 1h-26c-.552 0-1-.45-1-1s.448-1 1-1z" stroke-dasharray="0" stroke-miterlimit="50" clip-path="url(&quot;#a&quot;)" transform="translate(-671 -1520)"/>
</symbol><symbol id="icon-mobile" viewBox="0 0 98 88">
    <path d="M66 63H6c-3.314 0-6-2.69-6-6V6c0-3.31 2.686-6 6-6h76c3.314 0 6 2.69 6 6v28h4c3.314 0 6 2.69 6 6v42c0 3.31-2.686 6-6 6H72c-3.314 0-6-2.69-6-6zM86 6a4 4 0 0 0-4-4H6a4 4 0 0 0-4 4v51a4 4 0 0 0 4 4h60v-3H10c-1.105 0-2-.9-2-2V7c0-1.1.895-2 2-2h68c1.105 0 2 .9 2 2v27h2v-4c0-.55.448-1 1-1s1 .45 1 1v4h2zm-76 9v41h56V41H48c-.552 0-1-.45-1-1s.448-1 1-1h18.083a5.982 5.982 0 0 1 1.446-3H48c-.552 0-1-.45-1-1s.448-1 1-1h21a1 1 0 0 1 .809.413A5.98 5.98 0 0 1 72 34h6V15zm82 71a4 4 0 0 0 4-4V40a4 4 0 0 0-4-4H72a4 4 0 0 0-4 4v42a4 4 0 0 0 4 4zm-22-8V44c0-1.1.895-2 2-2h20c1.105 0 2 .9 2 2v34c0 1.1-.895 2-2 2H72c-1.105 0-2-.9-2-2zm22 0V51H72v27zM78 7H10v6h68zm14 42v-5H72v5zM17 29h22c.552 0 1 .45 1 1s-.448 1-1 1H17c-.552 0-1-.45-1-1s.448-1 1-1zm31 0h22c.552 0 1 .45 1 1s-.448 1-1 1H48c-.552 0-1-.45-1-1s.448-1 1-1zm-31 5h21c.552 0 1 .45 1 1s-.448 1-1 1H17c-.552 0-1-.45-1-1s.448-1 1-1zm0 5h20c.552 0 1 .45 1 1s-.448 1-1 1H17c-.552 0-1-.45-1-1s.448-1 1-1zm31 5h13c.552 0 1 .45 1 1s-.448 1-1 1H48c-.552 0-1-.45-1-1s.448-1 1-1zm28 18h12c.552 0 1 .45 1 1s-.448 1-1 1H76c-.552 0-1-.45-1-1s.448-1 1-1zm0 5h11c.552 0 1 .45 1 1s-.448 1-1 1H76c-.552 0-1-.45-1-1s.448-1 1-1zM23 22h10c.552 0 1 .45 1 1s-.448 1-1 1H23c-.552 0-1-.45-1-1s.448-1 1-1zm31 0h10c.552 0 1 .45 1 1s-.448 1-1 1H54c-.552 0-1-.45-1-1s.448-1 1-1zM17 44h9c.552 0 1 .45 1 1s-.448 1-1 1h-9c-.552 0-1-.45-1-1s.448-1 1-1zm62 11h6c.552 0 1 .45 1 1s-.448 1-1 1h-6c-.552 0-1-.45-1-1s.448-1 1-1zM4 35v-5c0-.55.448-1 1-1s1 .45 1 1v5c0 .55-.448 1-1 1s-1-.45-1-1zm76 3h5c.552 0 1 .45 1 1s-.448 1-1 1h-5c-.552 0-1-.45-1-1s.448-1 1-1zm0 44h5c.552 0 1 .45 1 1s-.448 1-1 1h-5c-.552 0-1-.45-1-1s.448-1 1-1zm-4-10h5c.552 0 1 .45 1 1s-.448 1-1 1h-5c-.552 0-1-.45-1-1s.448-1 1-1z"/>
</symbol><symbol id="icon-tv" viewBox="0 0 98 88">
    
    <path d="M92 70H53v4c0 1.588.15 2.939.399 4.084C64.553 78.514 73 80.553 73 83c0 2.76-10.745 5-24 5s-24-2.24-24-5c0-2.447 8.45-4.486 19.606-4.916C44.853 76.94 45 75.59 45 74v-4H6c-3.314 0-6-2.69-6-6V6c0-3.31 2.686-6 6-6h86c3.31 0 6 2.69 6 6v58c0 3.31-2.69 6-6 6zm4-64c0-2.21-1.79-4-4-4H6a4 4 0 0 0-4 4v58a4 4 0 0 0 4 4h86c2.21 0 4-1.79 4-4zm-5 59H7c-1.105 0-2-.9-2-2V7c0-1.1.895-2 2-2h84c1.1 0 2 .9 2 2v56c0 1.1-.9 2-2 2zm0-58H7v56h84zM44 80.085c-9.184.32-16 1.502-16 2.915 0 1.66 9.402 3 21 3s21-1.34 21-3c0-1.413-6.812-2.594-15.991-2.914C54.568 81.46 55.291 82.392 56 83c-.675.18-1.075.88-2 1-1.475-1.69-3-5.52-3-12v-2h-4v2c0 6.48-1.526 10.31-3 12-.921-.12-1.327-.83-2-1 .713-.606 1.44-1.534 2-2.915zm17.726-48.817c-7.03-7.027-18.424-7.027-25.452 0l-.002.002a1 1 0 0 1-1.414 0 .994.994 0 0 1 0-1.41c7.81-7.81 20.474-7.81 28.284 0a.994.994 0 0 1 0 1.41 1 1 0 0 1-1.414 0l-.002-.002zm-3.57 3.505c-5.068-5.03-13.244-5.03-18.313 0a1.003 1.003 0 0 1-1.45.037c-.39-.39-.39-1.03 0-1.42 5.858-5.85 15.356-5.85 21.214 0a1.002 1.002 0 1 1-1.45 1.383zm-2.078 2.147l-.009.008.002.002a.994.994 0 0 1 0 1.41 1 1 0 0 1-1.519-.122 8.014 8.014 0 0 0-11.104 0 1 1 0 0 1-1.519.122.994.994 0 0 1 0-1.41l.001-.002-.008-.008c3.909-3.91 10.247-3.91 14.156 0zM49 40a4 4 0 1 1 0 8 4 4 0 0 1 0-8zm-2 4c0 1.1.895 2 2 2s2-.9 2-2-.895-2-2-2-2 .9-2 2z"/>
    <path d="M1013 1590h-39v4c0 1.588.15 2.939.399 4.084 11.154.43 19.601 2.469 19.601 4.916 0 2.76-10.745 5-24 5s-24-2.24-24-5c0-2.447 8.45-4.486 19.606-4.916.247-1.143.394-2.493.394-4.084v-4h-39c-3.314 0-6-2.69-6-6v-58c0-3.31 2.686-6 6-6h86c3.31 0 6 2.69 6 6v58c0 3.31-2.69 6-6 6zm4-64c0-2.21-1.79-4-4-4h-86a4 4 0 0 0-4 4v58a4 4 0 0 0 4 4h86c2.21 0 4-1.79 4-4zm-5 59h-84c-1.105 0-2-.9-2-2v-56c0-1.1.895-2 2-2h84c1.1 0 2 .9 2 2v56c0 1.1-.9 2-2 2zm0-58h-84v56h84zm-47 73.085c-9.184.32-16 1.502-16 2.915 0 1.66 9.402 3 21 3s21-1.34 21-3c0-1.413-6.812-2.594-15.991-2.914.559 1.374 1.282 2.306 1.991 2.914-.675.18-1.075.88-2 1-1.475-1.69-3-5.52-3-12v-2h-4v2c0 6.48-1.526 10.31-3 12-.921-.12-1.327-.83-2-1 .713-.606 1.44-1.534 2-2.915zm17.726-48.817c-7.03-7.027-18.424-7.027-25.452 0l-.002.002a1 1 0 0 1-1.414 0 .994.994 0 0 1 0-1.41c7.81-7.81 20.474-7.81 28.284 0a.994.994 0 0 1 0 1.41 1 1 0 0 1-1.414 0l-.002-.002zm-3.57 3.505c-5.068-5.03-13.244-5.03-18.313 0a1.003 1.003 0 0 1-1.45.037c-.39-.39-.39-1.03 0-1.42 5.858-5.85 15.356-5.85 21.214 0a1.002 1.002 0 1 1-1.45 1.383zm-2.078 2.147l-.009.008.002.002a.994.994 0 0 1 0 1.41 1 1 0 0 1-1.519-.122 8.014 8.014 0 0 0-11.104 0 1 1 0 0 1-1.519.122.994.994 0 0 1 0-1.41l.001-.002-.008-.008c3.909-3.91 10.247-3.91 14.156 0zM970 1560a4 4 0 1 1 0 8 4 4 0 0 1 0-8zm-2 4c0 1.1.895 2 2 2s2-.9 2-2-.895-2-2-2-2 .9-2 2z" stroke-dasharray="0" stroke-miterlimit="50" clip-path="url(&quot;#a&quot;)" transform="translate(-921 -1520)"/>
</symbol></svg>