<?xml version="1.0" encoding="utf-8"?>
<!-- Generator: Adobe Illustrator 19.2.1, SVG Export Plug-In . SVG Version: 6.00 Build 0)  -->
<svg version="1.1" id="Слой_1" xmlns="http://www.w3.org/2000/svg" xmlns:xlink="http://www.w3.org/1999/xlink" x="0px" y="0px"
	 viewBox="0 0 46 46" style="enable-background:new 0 0 46 46;" xml:space="preserve">
<style type="text/css">
	.st0{fill:none;stroke:#FFFFFF;stroke-width:2;stroke-linejoin:round;}
</style>
<path class="st0" d="M41,45H5c-2.2,0-4-1.8-4-4V5c0-2.2,1.8-4,4-4h36c2.2,0,4,1.8,4,4v36C45,43.2,43.2,45,41,45z M43,5
	c0-1.1-0.9-2-2-2H5C3.9,3,3,3.9,3,5v36c0,1.1,0.9,2,2,2h36c1.1,0,2-0.9,2-2V5z M35,19h-5.3l-1.2,8H33c0.6,0,1,0.4,1,1
	c0,0.6-0.4,1-1,1h-4.8l-0.9,6c-0.1,0.6-0.6,1-1.2,1c-0.6,0-0.9-0.4-0.9-1l0.9-6H18L17,35c-0.1,0.6-0.6,1-1.2,1c-0.6,0-0.9-0.4-0.9-1
	l0.9-6H11c-0.6,0-1-0.4-1-1c0-0.6,0.4-1,1-1h5.3l1.2-8H13c-0.6,0-1-0.4-1-1c0-0.6,0.4-1,1-1h4.8l0.9-6c0.1-0.6,0.6-1,1.2-1
	c0.6,0,0.9,0.4,0.9,1l-0.9,6H28l0.9-6c0.1-0.6,0.6-1,1.2-1c0.6,0,0.9,0.4,0.9,1l-0.9,6H35c0.6,0,1,0.4,1,1C36,18.6,35.6,19,35,19z
	 M19.5,19l-1.2,8h8.2l1.2-8H19.5z"/>
</svg>
