<svg xmlns="http://www.w3.org/2000/svg" xmlns:xlink="http://www.w3.org/1999/xlink" preserveAspectRatio="xMidYMid" width="158" height="128" viewBox="0 0 158 128">
  <defs>
    <style>
      .cls-1 {
        fill: #0da6df;
        fill-rule: evenodd;
      }
    </style>
  </defs>
  <path d="M152.000,100.999 L94.000,100.999 L94.000,106.999 C94.000,111.417 96.957,115.972 102.000,118.964 L107.000,122.000 C107.857,122.594 109.000,123.848 109.000,124.999 C109.000,126.656 107.657,127.999 106.000,127.999 L53.000,127.999 C51.343,127.999 50.000,126.656 50.000,124.999 C50.000,123.574 51.175,122.618 52.000,122.000 L57.000,118.999 C62.043,116.008 64.000,111.417 64.000,106.999 L64.000,100.999 L6.000,100.999 C2.686,100.999 -0.000,98.313 -0.000,95.000 L-0.000,5.999 C-0.000,2.686 2.686,-0.001 6.000,-0.001 L152.000,-0.001 C155.314,-0.001 158.000,2.686 158.000,5.999 L158.000,95.000 C158.000,98.313 155.314,100.999 152.000,100.999 ZM52.000,124.999 C52.000,125.552 52.448,125.999 53.000,125.999 L106.000,125.999 C106.552,125.999 107.000,125.552 107.000,124.999 C107.000,124.447 106.552,123.999 106.000,123.999 L53.000,123.999 C52.448,123.999 52.000,124.447 52.000,124.999 ZM59.000,119.999 L55.000,122.000 L104.000,122.000 L100.000,119.999 C95.727,117.276 92.000,112.147 92.000,105.749 L92.000,100.999 L66.000,100.999 L66.000,105.749 C66.000,112.147 63.273,117.276 59.000,119.999 ZM156.000,5.999 C156.000,3.790 154.209,1.999 152.000,1.999 L6.000,1.999 C3.791,1.999 2.000,3.790 2.000,5.999 L2.000,95.000 C2.000,97.208 3.791,98.999 6.000,98.999 L152.000,98.999 C154.209,98.999 156.000,97.208 156.000,95.000 L156.000,5.999 ZM149.000,87.000 L9.000,87.000 C7.895,87.000 7.000,86.104 7.000,84.999 L7.000,8.999 C7.000,7.895 7.895,6.999 9.000,6.999 L149.000,6.999 C150.104,6.999 151.000,7.895 151.000,8.999 L151.000,84.999 C151.000,86.104 150.104,87.000 149.000,87.000 ZM149.000,8.999 L9.000,8.999 L9.000,84.999 L149.000,84.999 L149.000,8.999 ZM46.000,32.999 L112.000,32.999 C112.552,32.999 113.000,33.447 113.000,33.999 C113.000,34.552 112.552,34.999 112.000,34.999 L46.000,34.999 C45.448,34.999 45.000,34.552 45.000,33.999 C45.000,33.447 45.448,32.999 46.000,32.999 ZM46.000,37.999 L109.000,37.999 C109.552,37.999 110.000,38.447 110.000,38.999 C110.000,39.552 109.552,39.999 109.000,39.999 L46.000,39.999 C45.448,39.999 45.000,39.552 45.000,38.999 C45.000,38.447 45.448,37.999 46.000,37.999 ZM46.000,43.000 L112.000,43.000 C112.552,43.000 113.000,43.447 113.000,43.999 C113.000,44.552 112.552,44.999 112.000,44.999 L46.000,44.999 C45.448,44.999 45.000,44.552 45.000,43.999 C45.000,43.447 45.448,43.000 46.000,43.000 ZM46.000,47.999 L84.000,47.999 C84.552,47.999 85.000,48.447 85.000,48.999 C85.000,49.552 84.552,49.999 84.000,49.999 L46.000,49.999 C45.448,49.999 45.000,49.552 45.000,48.999 C45.000,48.447 45.448,47.999 46.000,47.999 ZM46.000,54.999 L112.000,54.999 C112.552,54.999 113.000,55.447 113.000,55.999 C113.000,56.552 112.552,56.999 112.000,56.999 L46.000,56.999 C45.448,56.999 45.000,56.552 45.000,55.999 C45.000,55.447 45.448,54.999 46.000,54.999 ZM46.000,59.999 L111.000,59.999 C111.552,59.999 112.000,60.447 112.000,61.000 C112.000,61.552 111.552,61.999 111.000,61.999 L46.000,61.999 C45.448,61.999 45.000,61.552 45.000,61.000 C45.000,60.447 45.448,59.999 46.000,59.999 ZM46.000,64.999 L112.000,64.999 C112.552,64.999 113.000,65.447 113.000,65.999 C113.000,66.552 112.552,66.999 112.000,66.999 L46.000,66.999 C45.448,66.999 45.000,66.552 45.000,65.999 C45.000,65.447 45.448,64.999 46.000,64.999 ZM46.000,69.999 L96.000,69.999 C96.552,69.999 97.000,70.447 97.000,70.999 C97.000,71.552 96.552,71.999 96.000,71.999 L46.000,71.999 C45.448,71.999 45.000,71.552 45.000,70.999 C45.000,70.447 45.448,69.999 46.000,69.999 ZM97.000,23.999 L65.000,23.999 C64.447,23.999 64.000,23.551 64.000,22.999 C64.000,22.447 64.447,21.999 65.000,21.999 L97.000,21.999 C97.552,21.999 98.000,22.447 98.000,22.999 C98.000,23.551 97.552,23.999 97.000,23.999 Z" class="cls-1"/>
</svg>
