<svg xmlns="http://www.w3.org/2000/svg" xmlns:xlink="http://www.w3.org/1999/xlink" preserveAspectRatio="xMidYMid" width="158" height="128" viewBox="0 0 158 128">
  <defs>
    <style>
      .cls-1 {
        fill: #0da6df;
        fill-rule: evenodd;
      }
    </style>
  </defs>
  <path d="M152.000,101.000 L94.000,101.000 L94.000,107.000 C94.000,111.418 96.957,115.972 102.000,118.964 L107.000,122.000 C107.857,122.594 109.000,123.848 109.000,125.000 C109.000,126.656 107.657,128.000 106.000,128.000 L53.000,128.000 C51.343,128.000 50.000,126.656 50.000,125.000 C50.000,123.575 51.175,122.619 52.000,122.000 L57.000,119.000 C62.043,116.008 64.000,111.418 64.000,107.000 L64.000,101.000 L6.000,101.000 C2.686,101.000 -0.000,98.313 -0.000,95.000 L-0.000,6.000 C-0.000,2.686 2.686,-0.000 6.000,-0.000 L152.000,-0.000 C155.314,-0.000 158.000,2.686 158.000,6.000 L158.000,95.000 C158.000,98.313 155.314,101.000 152.000,101.000 ZM52.000,125.000 C52.000,125.552 52.448,125.999 53.000,125.999 L106.000,125.999 C106.552,125.999 107.000,125.552 107.000,125.000 C107.000,124.447 106.552,124.000 106.000,124.000 L53.000,124.000 C52.448,124.000 52.000,124.447 52.000,125.000 ZM59.000,120.000 L55.000,122.000 L104.000,122.000 L100.000,120.000 C95.727,117.277 92.000,112.147 92.000,105.750 L92.000,101.000 L66.000,101.000 L66.000,105.750 C66.000,112.147 63.273,117.277 59.000,120.000 ZM156.000,6.000 C156.000,3.790 154.209,2.000 152.000,2.000 L6.000,2.000 C3.791,2.000 2.000,3.790 2.000,6.000 L2.000,95.000 C2.000,97.209 3.791,99.000 6.000,99.000 L152.000,99.000 C154.209,99.000 156.000,97.209 156.000,95.000 L156.000,6.000 ZM149.000,87.000 L9.000,87.000 C7.895,87.000 7.000,86.104 7.000,85.000 L7.000,9.000 C7.000,7.895 7.895,7.000 9.000,7.000 L149.000,7.000 C150.105,7.000 151.000,7.895 151.000,9.000 L151.000,85.000 C151.000,86.104 150.105,87.000 149.000,87.000 ZM149.000,9.000 L9.000,9.000 L9.000,85.000 L149.000,85.000 L149.000,9.000 ZM17.000,15.000 L141.000,15.000 C142.105,15.000 143.000,15.895 143.000,17.000 L143.000,29.000 C143.000,30.104 142.105,31.000 141.000,31.000 L17.000,31.000 C15.895,31.000 15.000,30.104 15.000,29.000 L15.000,17.000 C15.000,15.895 15.895,15.000 17.000,15.000 ZM17.000,29.000 L141.000,29.000 L141.000,17.000 L17.000,17.000 L17.000,29.000 ZM51.000,39.000 C50.448,39.000 50.000,38.552 50.000,38.000 C50.000,37.447 50.448,37.000 51.000,37.000 L83.000,37.000 C83.552,37.000 84.000,37.447 84.000,38.000 C84.000,38.552 83.552,39.000 83.000,39.000 L51.000,39.000 ZM32.000,45.000 L98.000,45.000 C98.552,45.000 99.000,45.447 99.000,45.999 C99.000,46.552 98.552,47.000 98.000,47.000 L32.000,47.000 C31.448,47.000 31.000,46.552 31.000,45.999 C31.000,45.447 31.448,45.000 32.000,45.000 ZM32.000,50.000 L95.000,50.000 C95.552,50.000 96.000,50.447 96.000,51.000 C96.000,51.552 95.552,52.000 95.000,52.000 L32.000,52.000 C31.448,52.000 31.000,51.552 31.000,51.000 C31.000,50.447 31.448,50.000 32.000,50.000 ZM32.000,55.000 L98.000,55.000 C98.552,55.000 99.000,55.447 99.000,56.000 C99.000,56.552 98.552,57.000 98.000,57.000 L32.000,57.000 C31.448,57.000 31.000,56.552 31.000,56.000 C31.000,55.447 31.448,55.000 32.000,55.000 ZM32.000,60.000 L70.000,60.000 C70.552,60.000 71.000,60.447 71.000,61.000 C71.000,61.552 70.552,62.000 70.000,62.000 L32.000,62.000 C31.448,62.000 31.000,61.552 31.000,61.000 C31.000,60.447 31.448,60.000 32.000,60.000 ZM32.000,67.000 L98.000,67.000 C98.552,67.000 99.000,67.447 99.000,68.000 C99.000,68.552 98.552,69.000 98.000,69.000 L32.000,69.000 C31.448,69.000 31.000,68.552 31.000,68.000 C31.000,67.447 31.448,67.000 32.000,67.000 ZM32.000,72.000 L97.000,72.000 C97.552,72.000 98.000,72.447 98.000,73.000 C98.000,73.552 97.552,74.000 97.000,74.000 L32.000,74.000 C31.448,74.000 31.000,73.552 31.000,73.000 C31.000,72.447 31.448,72.000 32.000,72.000 ZM32.000,77.000 L82.000,77.000 C82.552,77.000 83.000,77.447 83.000,78.000 C83.000,78.552 82.552,79.000 82.000,79.000 L32.000,79.000 C31.448,79.000 31.000,78.552 31.000,78.000 C31.000,77.447 31.448,77.000 32.000,77.000 ZM117.000,37.000 L141.000,37.000 C142.105,37.000 143.000,37.895 143.000,39.000 L143.000,77.000 C143.000,78.104 142.105,79.000 141.000,79.000 L117.000,79.000 C115.895,79.000 115.000,78.104 115.000,77.000 L115.000,39.000 C115.000,37.895 115.895,37.000 117.000,37.000 ZM117.000,77.000 L141.000,77.000 L141.000,39.000 L117.000,39.000 L117.000,77.000 Z" class="cls-1"/>
</svg>
