<?xml version="1.0" encoding="utf-8"?>
<!-- Generator: Adobe Illustrator 19.2.1, SVG Export Plug-In . SVG Version: 6.00 Build 0)  -->
<svg version="1.1" id="Слой_1" xmlns="http://www.w3.org/2000/svg" xmlns:xlink="http://www.w3.org/1999/xlink" x="0px" y="0px"
	 viewBox="0 0 22 26" style="enable-background:new 0 0 22 26;" xml:space="preserve">
<style type="text/css">
	.st0{fill:#7C7B7B;}
</style>
<g>
	<path class="st0" d="M11,26.4l-7.8-7.7C1.1,16.6,0,13.9,0,11c0-6,4.9-11,11-11s11,4.9,11,11c0,2.9-1.1,5.7-3.2,7.7L11,26.4z M11,2
		c-5,0-9,4-9,9c0,2.4,0.9,4.6,2.6,6.3l6.4,6.3l6.4-6.3c1.7-1.7,2.6-3.9,2.6-6.3C20,6,16,2,11,2z M11,15c-2.2,0-4-1.8-4-4
		c0-2.2,1.8-4,4-4c2.2,0,4,1.8,4,4C15,13.2,13.2,15,11,15z M11,9c-1.1,0-2,0.9-2,2c0,1.1,0.9,2,2,2c1.1,0,2-0.9,2-2
		C13,9.9,12.1,9,11,9z"/>
</g>
</svg>
