<svg xmlns="http://www.w3.org/2000/svg" xmlns:xlink="http://www.w3.org/1999/xlink" preserveAspectRatio="xMidYMid" width="64" height="64" viewBox="0 0 64 64">
  <defs>
    <style>
      .cls-1 {
        fill: #27afe2;
        fill-rule: evenodd;
      }
    </style>
  </defs>
  <path d="M32.000,64.000 C14.327,64.000 -0.000,49.673 -0.000,32.000 C-0.000,14.327 14.327,-0.000 32.000,-0.000 C49.673,-0.000 64.000,14.327 64.000,32.000 C64.000,49.673 49.673,64.000 32.000,64.000 ZM16.664,45.999 L23.379,45.999 L23.379,25.855 L16.664,25.855 L16.664,45.999 ZM20.022,13.992 C17.784,13.992 15.993,15.783 15.993,18.021 C15.993,20.260 17.784,22.050 20.022,22.050 C22.260,22.050 24.051,20.260 24.051,18.021 C24.051,15.783 22.260,13.992 20.022,13.992 ZM48.000,33.241 C48.000,28.989 44.419,25.408 40.166,25.408 C38.152,25.408 35.690,26.750 34.570,28.541 L34.570,25.855 L27.856,25.855 L27.856,45.999 L34.570,45.999 L34.570,34.137 C34.570,32.346 36.137,30.779 37.928,30.779 C39.718,30.779 41.285,32.346 41.285,34.137 L41.285,45.999 L48.000,45.999 L48.000,33.241 Z" class="cls-1"/>
</svg>
