<svg xmlns="http://www.w3.org/2000/svg" xmlns:xlink="http://www.w3.org/1999/xlink" preserveAspectRatio="xMidYMid" width="158" height="128" viewBox="0 0 158 128">
  <defs>
    <style>
      .cls-1 {
        fill: #0da6df;
        fill-rule: evenodd;
      }
    </style>
  </defs>
  <path d="M150.000,128.000 L114.000,128.000 C109.582,128.000 106.000,124.418 106.000,120.000 L106.000,102.000 L8.000,102.000 C3.582,102.000 -0.000,98.418 -0.000,94.000 L-0.000,8.000 C-0.000,3.581 3.582,-0.000 8.000,-0.000 L134.000,-0.000 C138.418,-0.000 142.000,3.581 142.000,8.000 L142.000,41.000 L150.000,41.000 C154.418,41.000 158.000,44.581 158.000,49.000 L158.000,120.000 C158.000,124.418 154.418,128.000 150.000,128.000 ZM106.262,47.000 C107.151,43.551 110.274,41.000 114.000,41.000 L127.000,41.000 L127.000,23.000 L15.000,23.000 L15.000,91.999 L106.000,91.999 L106.000,72.999 L77.000,72.999 C76.448,72.999 76.000,72.552 76.000,71.999 C76.000,71.447 76.448,70.999 77.000,70.999 L106.000,70.999 L106.000,66.999 L77.000,66.999 C76.448,66.999 76.000,66.552 76.000,65.999 C76.000,65.447 76.448,64.999 77.000,64.999 L106.000,64.999 L106.000,61.000 L77.000,61.000 C76.448,61.000 76.000,60.552 76.000,59.999 C76.000,59.447 76.448,58.999 77.000,58.999 L106.000,58.999 L106.000,54.999 L77.000,54.999 C76.448,54.999 76.000,54.552 76.000,53.999 C76.000,53.447 76.448,52.999 77.000,52.999 L106.000,52.999 L106.000,49.000 L77.000,49.000 C76.448,49.000 76.000,48.552 76.000,47.999 C76.000,47.448 76.448,47.000 77.000,47.000 L106.262,47.000 ZM127.000,21.000 L127.000,10.000 L15.000,10.000 L15.000,21.000 L127.000,21.000 ZM140.000,8.000 C140.000,4.686 137.314,2.000 134.000,2.000 L8.000,2.000 C4.686,2.000 2.000,4.686 2.000,8.000 L2.000,94.000 C2.000,97.313 4.686,100.000 8.000,100.000 L106.000,100.000 L106.000,94.000 L15.000,94.000 C13.895,94.000 13.000,93.104 13.000,91.999 L13.000,10.000 C13.000,8.895 13.895,8.000 15.000,8.000 L127.000,8.000 C128.105,8.000 129.000,8.895 129.000,10.000 L129.000,41.000 L140.000,41.000 L140.000,8.000 ZM156.000,49.000 C156.000,45.686 153.314,43.000 150.000,43.000 L114.000,43.000 C110.686,43.000 108.000,45.686 108.000,49.000 L108.000,120.000 C108.000,123.313 110.686,125.999 114.000,125.999 L150.000,125.999 C153.314,125.999 156.000,123.313 156.000,120.000 L156.000,49.000 ZM150.000,115.000 L114.000,115.000 C112.895,115.000 112.000,114.104 112.000,113.000 L112.000,55.999 C112.000,54.895 112.895,54.000 114.000,54.000 L150.000,54.000 C151.105,54.000 152.000,54.895 152.000,55.999 L152.000,113.000 C152.000,114.104 151.105,115.000 150.000,115.000 ZM150.000,55.999 L114.000,55.999 L114.000,113.000 L150.000,113.000 L150.000,55.999 ZM119.000,72.999 L145.000,72.999 C145.552,72.999 146.000,73.447 146.000,73.999 C146.000,74.552 145.552,74.999 145.000,74.999 L119.000,74.999 C118.448,74.999 118.000,74.552 118.000,73.999 C118.000,73.447 118.448,72.999 119.000,72.999 ZM119.000,78.999 L142.000,78.999 C142.552,78.999 143.000,79.447 143.000,79.999 C143.000,80.552 142.552,80.999 142.000,80.999 L119.000,80.999 C118.448,80.999 118.000,80.552 118.000,79.999 C118.000,79.447 118.448,78.999 119.000,78.999 ZM119.000,84.999 L145.000,84.999 C145.552,84.999 146.000,85.447 146.000,85.999 C146.000,86.551 145.552,87.000 145.000,87.000 L119.000,87.000 C118.448,87.000 118.000,86.551 118.000,85.999 C118.000,85.447 118.448,84.999 119.000,84.999 ZM119.000,90.999 L144.000,90.999 C144.552,90.999 145.000,91.447 145.000,91.999 C145.000,92.552 144.552,92.999 144.000,92.999 L119.000,92.999 C118.448,92.999 118.000,92.552 118.000,91.999 C118.000,91.447 118.448,90.999 119.000,90.999 ZM119.000,96.999 L143.000,96.999 C143.552,96.999 144.000,97.447 144.000,98.000 C144.000,98.552 143.552,98.999 143.000,98.999 L119.000,98.999 C118.448,98.999 118.000,98.552 118.000,98.000 C118.000,97.447 118.448,96.999 119.000,96.999 ZM119.000,102.999 L133.000,102.999 C133.552,102.999 134.000,103.447 134.000,103.999 C134.000,104.552 133.552,104.999 133.000,104.999 L119.000,104.999 C118.448,104.999 118.000,104.552 118.000,103.999 C118.000,103.447 118.448,102.999 119.000,102.999 ZM139.000,66.999 L125.000,66.999 C124.448,66.999 124.000,66.551 124.000,65.999 C124.000,65.447 124.448,64.999 125.000,64.999 L139.000,64.999 C139.552,64.999 140.000,65.447 140.000,65.999 C140.000,66.551 139.552,66.999 139.000,66.999 ZM136.000,50.000 L128.000,50.000 C127.448,50.000 127.000,49.552 127.000,49.000 C127.000,48.447 127.448,47.999 128.000,47.999 L136.000,47.999 C136.552,47.999 137.000,48.447 137.000,49.000 C137.000,49.552 136.552,50.000 136.000,50.000 ZM128.000,119.000 L136.000,119.000 C136.552,119.000 137.000,119.447 137.000,120.000 C137.000,120.552 136.552,121.000 136.000,121.000 L128.000,121.000 C127.448,121.000 127.000,120.552 127.000,120.000 C127.000,119.447 127.448,119.000 128.000,119.000 ZM87.000,36.000 L103.000,36.000 C103.552,36.000 104.000,36.447 104.000,37.000 C104.000,37.552 103.552,37.999 103.000,37.999 L87.000,37.999 C86.448,37.999 86.000,37.552 86.000,37.000 C86.000,36.447 86.448,36.000 87.000,36.000 ZM63.000,49.000 L27.000,49.000 C26.448,49.000 26.000,48.552 26.000,47.999 C26.000,47.448 26.448,47.000 27.000,47.000 L63.000,47.000 C63.552,47.000 64.000,47.448 64.000,47.999 C64.000,48.552 63.552,49.000 63.000,49.000 ZM53.000,37.999 L37.000,37.999 C36.448,37.999 36.000,37.552 36.000,37.000 C36.000,36.447 36.448,36.000 37.000,36.000 L53.000,36.000 C53.552,36.000 54.000,36.447 54.000,37.000 C54.000,37.552 53.552,37.999 53.000,37.999 ZM27.000,52.999 L60.000,52.999 C60.552,52.999 61.000,53.447 61.000,53.999 C61.000,54.552 60.552,54.999 60.000,54.999 L27.000,54.999 C26.448,54.999 26.000,54.552 26.000,53.999 C26.000,53.447 26.448,52.999 27.000,52.999 ZM27.000,58.999 L63.000,58.999 C63.552,58.999 64.000,59.447 64.000,59.999 C64.000,60.552 63.552,61.000 63.000,61.000 L27.000,61.000 C26.448,61.000 26.000,60.552 26.000,59.999 C26.000,59.447 26.448,58.999 27.000,58.999 ZM27.000,64.999 L62.000,64.999 C62.552,64.999 63.000,65.447 63.000,65.999 C63.000,66.552 62.552,66.999 62.000,66.999 L27.000,66.999 C26.448,66.999 26.000,66.552 26.000,65.999 C26.000,65.447 26.448,64.999 27.000,64.999 ZM27.000,70.999 L63.000,70.999 C63.552,70.999 64.000,71.447 64.000,71.999 C64.000,72.552 63.552,72.999 63.000,72.999 L27.000,72.999 C26.448,72.999 26.000,72.552 26.000,71.999 C26.000,71.447 26.448,70.999 27.000,70.999 ZM27.000,77.000 L41.000,77.000 C41.552,77.000 42.000,77.447 42.000,77.999 C42.000,78.552 41.552,78.999 41.000,78.999 L27.000,78.999 C26.448,78.999 26.000,78.552 26.000,77.999 C26.000,77.447 26.448,77.000 27.000,77.000 ZM77.000,77.000 L91.000,77.000 C91.552,77.000 92.000,77.447 92.000,77.999 C92.000,78.552 91.552,78.999 91.000,78.999 L77.000,78.999 C76.448,78.999 76.000,78.552 76.000,77.999 C76.000,77.447 76.448,77.000 77.000,77.000 Z" class="cls-1"/>
</svg>
