<svg id="SvgjsSvg1000" xmlns="http://www.w3.org/2000/svg" version="1.1" xmlns:xlink="http://www.w3.org/1999/xlink" xmlns:svgjs="http://svgjs.com/svgjs" width="98" height="88" viewBox="0 0 98 88"><defs id="SvgjsDefs1001"></defs><path id="SvgjsPath1007" d="M487 1583L427 1583C423.686 1583 421 1580.31 421 1577L421 1526C421 1522.69 423.686 1520 427 1520L503 1520C506.314 1520 509 1522.69 509 1526L509 1554L513 1554C516.314 1554 519 1556.69 519 1560L519 1602C519 1605.31 516.314 1608 513 1608L493 1608C489.686 1608 487 1605.31 487 1602ZM507 1526C507 1523.79 505.209 1522 503 1522L427 1522C424.791 1522 423 1523.79 423 1526L423 1577C423 1579.21 424.791 1581 427 1581L487 1581L487 1578L431 1578C429.895 1578 429 1577.1 429 1576L429 1527C429 1525.9 429.895 1525 431 1525L499 1525C500.105 1525 501 1525.9 501 1527L501 1554L503 1554L503 1550C503 1549.45 503.448 1549 504 1549C504.552 1549 505 1549.45 505 1550L505 1554L507 1554ZM431 1535L431 1576L487 1576L487 1561L469 1561C468.448 1561 468 1560.55 468 1560C468 1559.45 468.448 1559 469 1559L487.0831 1559C487.27484 1557.85894 487.78909 1556.82647 488.52901 1556L469 1556C468.448 1556 468 1555.55 468 1555C468 1554.45 468.448 1554 469 1554L490 1554C490.33238 1554 490.62706 1554.16316 490.80892 1554.41307C491.48766 1554.1464600000002 492.22673 1554 493 1554L499 1554L499 1535ZM513 1606C515.209 1606 517 1604.21 517 1602L517 1560C517 1557.79 515.209 1556 513 1556L493 1556C490.791 1556 489 1557.79 489 1560L489 1602C489 1604.21 490.791 1606 493 1606ZM491 1598L491 1564C491 1562.9 491.895 1562 493 1562L513 1562C514.105 1562 515 1562.9 515 1564L515 1598C515 1599.1 514.105 1600 513 1600L493 1600C491.895 1600 491 1599.1 491 1598ZM513 1598L513 1571L493 1571L493 1598ZM499 1527L431 1527L431 1533L499 1533ZM513 1569L513 1564L493 1564L493 1569ZM438 1549L460 1549C460.552 1549 461 1549.45 461 1550C461 1550.55 460.552 1551 460 1551L438 1551C437.448 1551 437 1550.55 437 1550C437 1549.45 437.448 1549 438 1549ZM469 1549L491 1549C491.552 1549 492 1549.45 492 1550C492 1550.55 491.552 1551 491 1551L469 1551C468.448 1551 468 1550.55 468 1550C468 1549.45 468.448 1549 469 1549ZM438 1554L459 1554C459.552 1554 460 1554.45 460 1555C460 1555.55 459.552 1556 459 1556L438 1556C437.448 1556 437 1555.55 437 1555C437 1554.45 437.448 1554 438 1554ZM438 1559L458 1559C458.552 1559 459 1559.45 459 1560C459 1560.55 458.552 1561 458 1561L438 1561C437.448 1561 437 1560.55 437 1560C437 1559.45 437.448 1559 438 1559ZM469 1564L482 1564C482.552 1564 483 1564.45 483 1565C483 1565.55 482.552 1566 482 1566L469 1566C468.448 1566 468 1565.55 468 1565C468 1564.45 468.448 1564 469 1564ZM497 1582L509 1582C509.552 1582 510 1582.45 510 1583C510 1583.55 509.552 1584 509 1584L497 1584C496.448 1584 496 1583.55 496 1583C496 1582.45 496.448 1582 497 1582ZM497 1587L508 1587C508.552 1587 509 1587.45 509 1588C509 1588.55 508.552 1589 508 1589L497 1589C496.448 1589 496 1588.55 496 1588C496 1587.45 496.448 1587 497 1587ZM444 1542L454 1542C454.552 1542 455 1542.45 455 1543C455 1543.55 454.552 1544 454 1544L444 1544C443.448 1544 443 1543.55 443 1543C443 1542.45 443.448 1542 444 1542ZM475 1542L485 1542C485.552 1542 486 1542.45 486 1543C486 1543.55 485.552 1544 485 1544L475 1544C474.448 1544 474 1543.55 474 1543C474 1542.45 474.448 1542 475 1542ZM438 1564L447 1564C447.552 1564 448 1564.45 448 1565C448 1565.55 447.552 1566 447 1566L438 1566C437.448 1566 437 1565.55 437 1565C437 1564.45 437.448 1564 438 1564ZM500 1575L506 1575C506.552 1575 507 1575.45 507 1576C507 1576.55 506.552 1577 506 1577L500 1577C499.448 1577 499 1576.55 499 1576C499 1575.45 499.448 1575 500 1575ZM425 1555L425 1550C425 1549.45 425.448 1549 426 1549C426.552 1549 427 1549.45 427 1550L427 1555C427 1555.55 426.552 1556 426 1556C425.448 1556 425 1555.55 425 1555ZM501 1558L506 1558C506.552 1558 507 1558.45 507 1559C507 1559.55 506.552 1560 506 1560L501 1560C500.448 1560 500 1559.55 500 1559C500 1558.45 500.448 1558 501 1558ZM501 1602L506 1602C506.552 1602 507 1602.45 507 1603C507 1603.55 506.552 1604 506 1604L501 1604C500.448 1604 500 1603.55 500 1603C500 1602.45 500.448 1602 501 1602ZM497 1592L502 1592C502.552 1592 503 1592.45 503 1593C503 1593.55 502.552 1594 502 1594L497 1594C496.448 1594 496 1593.55 496 1593C496 1592.45 496.448 1592 497 1592Z " fill="#ffffff" transform="matrix(1,0,0,1,-421,-1520)"></path></svg>