<svg xmlns="http://www.w3.org/2000/svg" xmlns:xlink="http://www.w3.org/1999/xlink" preserveAspectRatio="xMidYMid" width="158" height="128" viewBox="0 0 158 128">
  <defs>
    <style>
      .cls-1 {
        fill: #0da6df;
        fill-rule: evenodd;
      }
    </style>
  </defs>
  <path d="M157.000,128.000 L144.000,128.000 L142.000,128.000 L134.000,128.000 L132.000,128.000 L26.000,128.000 L24.000,128.000 L16.000,128.000 L14.000,128.000 L1.000,128.000 C0.448,128.000 -0.000,127.552 -0.000,127.000 C-0.000,126.448 0.448,126.000 1.000,126.000 L14.000,126.000 L14.000,16.000 C14.000,7.163 21.163,-0.000 30.000,-0.000 L128.000,-0.000 C136.837,-0.000 144.000,7.163 144.000,16.000 L144.000,126.000 L157.000,126.000 C157.552,126.000 158.000,126.448 158.000,127.000 C158.000,127.552 157.552,128.000 157.000,128.000 ZM132.000,126.000 L132.000,33.999 L26.000,33.999 L26.000,126.000 L132.000,126.000 ZM142.000,16.000 C142.000,8.268 135.732,2.000 128.000,2.000 L30.000,2.000 C22.268,2.000 16.000,8.268 16.000,16.000 L16.000,126.000 L24.000,126.000 L24.000,33.999 C24.000,32.895 24.895,32.000 26.000,32.000 L132.000,32.000 C133.104,32.000 134.000,32.895 134.000,33.999 L134.000,126.000 L142.000,126.000 L142.000,16.000 ZM91.000,17.000 L67.000,17.000 C65.343,17.000 64.000,15.657 64.000,14.000 C64.000,12.343 65.343,11.000 67.000,11.000 L91.000,11.000 C92.657,11.000 94.000,12.343 94.000,14.000 C94.000,15.657 92.657,17.000 91.000,17.000 ZM91.000,13.000 L67.000,13.000 C66.448,13.000 66.000,13.448 66.000,14.000 C66.000,14.552 66.448,15.000 67.000,15.000 L91.000,15.000 C91.552,15.000 92.000,14.552 92.000,14.000 C92.000,13.448 91.552,13.000 91.000,13.000 ZM34.000,44.000 L63.000,44.000 C64.104,44.000 65.000,44.895 65.000,46.000 L65.000,75.000 C65.000,76.104 64.104,77.000 63.000,77.000 L34.000,77.000 C32.895,77.000 32.000,76.104 32.000,75.000 L32.000,46.000 C32.000,44.895 32.895,44.000 34.000,44.000 ZM34.000,75.000 L63.000,75.000 L63.000,46.000 L34.000,46.000 L34.000,75.000 ZM34.000,86.000 L63.000,86.000 C64.104,86.000 65.000,86.895 65.000,88.000 L65.000,117.000 C65.000,118.104 64.104,119.000 63.000,119.000 L34.000,119.000 C32.895,119.000 32.000,118.104 32.000,117.000 L32.000,88.000 C32.000,86.895 32.895,86.000 34.000,86.000 ZM34.000,117.000 L63.000,117.000 L63.000,88.000 L34.000,88.000 L34.000,117.000 ZM46.218,108.704 C45.821,109.100 45.179,109.100 44.782,108.704 L39.039,102.961 C38.643,102.564 38.643,101.921 39.039,101.525 C39.436,101.129 40.078,101.129 40.475,101.525 L45.500,106.550 L56.268,95.782 C56.665,95.386 57.307,95.386 57.704,95.782 C58.100,96.179 58.100,96.821 57.704,97.218 L46.218,108.704 ZM72.000,49.000 L125.000,49.000 C125.552,49.000 126.000,49.447 126.000,50.000 C126.000,50.552 125.552,51.000 125.000,51.000 L72.000,51.000 C71.448,51.000 71.000,50.552 71.000,50.000 C71.000,49.447 71.448,49.000 72.000,49.000 ZM72.000,56.000 L122.000,56.000 C122.552,56.000 123.000,56.447 123.000,57.000 C123.000,57.552 122.552,58.000 122.000,58.000 L72.000,58.000 C71.448,58.000 71.000,57.552 71.000,57.000 C71.000,56.447 71.448,56.000 72.000,56.000 ZM72.000,63.000 L125.000,63.000 C125.552,63.000 126.000,63.447 126.000,64.000 C126.000,64.552 125.552,65.000 125.000,65.000 L72.000,65.000 C71.448,65.000 71.000,64.552 71.000,64.000 C71.000,63.447 71.448,63.000 72.000,63.000 ZM72.000,70.000 L109.000,70.000 C109.552,70.000 110.000,70.447 110.000,70.999 C110.000,71.552 109.552,72.000 109.000,72.000 L72.000,72.000 C71.448,72.000 71.000,71.552 71.000,70.999 C71.000,70.447 71.448,70.000 72.000,70.000 ZM72.000,91.000 L125.000,91.000 C125.552,91.000 126.000,91.447 126.000,91.999 C126.000,92.552 125.552,93.000 125.000,93.000 L72.000,93.000 C71.448,93.000 71.000,92.552 71.000,91.999 C71.000,91.447 71.448,91.000 72.000,91.000 ZM72.000,98.000 L122.000,98.000 C122.552,98.000 123.000,98.447 123.000,99.000 C123.000,99.552 122.552,100.000 122.000,100.000 L72.000,100.000 C71.448,100.000 71.000,99.552 71.000,99.000 C71.000,98.447 71.448,98.000 72.000,98.000 ZM72.000,105.000 L125.000,105.000 C125.552,105.000 126.000,105.447 126.000,106.000 C126.000,106.552 125.552,107.000 125.000,107.000 L72.000,107.000 C71.448,107.000 71.000,106.552 71.000,106.000 C71.000,105.447 71.448,105.000 72.000,105.000 ZM72.000,112.000 L109.000,112.000 C109.552,112.000 110.000,112.447 110.000,112.999 C110.000,113.552 109.552,114.000 109.000,114.000 L72.000,114.000 C71.448,114.000 71.000,113.552 71.000,112.999 C71.000,112.447 71.448,112.000 72.000,112.000 Z" class="cls-1"/>
</svg>
