<svg xmlns="http://www.w3.org/2000/svg" xmlns:xlink="http://www.w3.org/1999/xlink" preserveAspectRatio="xMidYMid" width="317" height="255" viewBox="0 0 317 255">
  <defs>
    <style>
      .cls-1 {
        fill: #0da6df;
        fill-rule: evenodd;
      }
    </style>
  </defs>
  <path d="M314.991,254.992 L289.020,254.992 L285.024,254.992 L269.011,254.992 L269.011,254.992 L265.017,254.992 L265.017,254.992 L51.983,254.992 L51.983,254.992 L47.988,254.992 L47.988,254.992 L31.975,254.992 L27.980,254.992 L2.009,254.992 C0.906,254.992 0.011,254.101 0.011,253.000 C0.011,251.900 0.906,251.008 2.009,251.008 L27.980,251.008 L27.980,31.880 C27.980,14.278 42.290,0.007 59.944,0.007 L257.056,0.007 C274.709,0.007 289.020,14.278 289.020,31.880 L289.020,251.008 L314.991,251.008 C316.094,251.008 316.989,251.900 316.989,253.000 C316.989,254.101 316.094,254.992 314.991,254.992 ZM51.983,251.008 L265.017,251.008 L265.017,67.982 L51.983,67.982 L51.983,251.008 ZM285.024,31.880 C285.024,16.477 272.502,3.991 257.056,3.991 L59.944,3.991 C44.497,3.991 31.975,16.477 31.975,31.880 L31.975,251.008 L47.988,251.008 L47.988,67.982 C47.988,65.785 49.777,64.003 51.983,64.003 L265.017,64.003 C267.223,64.003 269.011,65.785 269.011,67.982 L269.011,251.008 L285.024,251.008 L285.024,31.880 ZM183.038,35.005 L133.962,35.005 C130.665,35.005 127.993,32.315 127.993,28.998 C127.993,25.680 130.665,22.990 133.962,22.990 L183.038,22.990 C186.335,22.990 189.007,25.680 189.007,28.998 C189.007,32.315 186.335,35.005 183.038,35.005 ZM183.038,26.995 L133.962,26.995 C132.863,26.995 131.972,27.892 131.972,28.998 C131.972,30.104 132.863,31.000 133.962,31.000 L183.038,31.000 C184.137,31.000 185.028,30.104 185.028,28.998 C185.028,27.892 184.137,26.995 183.038,26.995 ZM251.980,212.666 L143.004,212.666 C141.896,212.666 140.999,211.771 140.999,210.666 C140.999,209.562 141.896,208.668 143.004,208.668 L251.980,208.668 C253.088,208.668 253.986,209.562 253.986,210.666 C253.986,211.771 253.088,212.666 251.980,212.666 ZM245.346,195.339 C246.447,195.339 247.340,196.235 247.340,197.339 C247.340,198.443 246.447,199.338 245.346,199.338 L142.992,199.338 C141.891,199.338 140.999,198.443 140.999,197.339 C140.999,196.235 141.891,195.339 142.992,195.339 L245.346,195.339 ZM251.980,186.010 L143.004,186.010 C141.896,186.010 140.999,185.115 140.999,184.011 C140.999,182.907 141.896,182.012 143.004,182.012 L251.980,182.012 C253.088,182.012 253.986,182.907 253.986,184.011 C253.986,185.115 253.088,186.010 251.980,186.010 ZM143.009,138.013 L220.073,138.013 C221.183,138.013 222.084,138.908 222.084,140.013 C222.084,141.118 221.183,142.014 220.073,142.014 L143.009,142.014 C141.899,142.014 140.999,141.118 140.999,140.013 C140.999,138.908 141.899,138.013 143.009,138.013 ZM251.980,128.677 L143.004,128.677 C141.896,128.677 140.999,127.781 140.999,126.676 C140.999,125.571 141.896,124.676 143.004,124.676 L251.980,124.676 C253.088,124.676 253.986,125.571 253.986,126.676 C253.986,127.781 253.088,128.677 251.980,128.677 ZM245.346,111.338 C246.447,111.338 247.340,112.234 247.340,113.339 C247.340,114.444 246.447,115.340 245.346,115.340 L142.992,115.340 C141.891,115.340 140.999,114.444 140.999,113.339 C140.999,112.234 141.891,111.338 142.992,111.338 L245.346,111.338 ZM251.980,102.002 L143.004,102.002 C141.896,102.002 140.999,101.106 140.999,100.001 C140.999,98.896 141.896,98.001 143.004,98.001 L251.980,98.001 C253.088,98.001 253.986,98.896 253.986,100.001 C253.986,101.106 253.088,102.002 251.980,102.002 ZM124.991,235.993 L68.022,235.993 C65.802,235.993 64.002,234.194 64.002,231.975 L64.002,175.031 C64.002,172.811 65.802,171.013 68.022,171.013 L124.991,171.013 C127.212,171.013 129.012,172.811 129.012,175.031 L129.012,231.975 C129.012,234.194 127.212,235.993 124.991,235.993 ZM125.033,174.989 L67.981,174.989 L67.981,232.016 L125.033,232.016 L125.033,174.989 ZM80.870,202.252 L90.909,212.263 L112.421,190.812 C113.213,190.022 114.497,190.022 115.289,190.812 C116.081,191.602 116.081,192.882 115.289,193.672 L92.343,216.553 C91.551,217.343 90.267,217.343 89.475,216.553 L78.002,205.112 C77.210,204.323 77.210,203.042 78.002,202.252 C78.794,201.462 80.078,201.462 80.870,202.252 ZM124.991,153.014 L68.022,153.014 C65.802,153.014 64.002,151.213 64.002,148.993 L64.002,92.022 C64.002,89.802 65.802,88.001 68.022,88.001 L124.991,88.001 C127.212,88.001 129.012,89.802 129.012,92.022 L129.012,148.993 C129.012,151.213 127.212,153.014 124.991,153.014 ZM125.033,91.981 L67.981,91.981 L67.981,149.035 L125.033,149.035 L125.033,91.981 ZM143.009,221.996 L220.073,221.996 C221.183,221.996 222.084,222.890 222.084,223.994 C222.084,225.098 221.183,225.993 220.073,225.993 L143.009,225.993 C141.899,225.993 140.999,225.098 140.999,223.994 C140.999,222.890 141.899,221.996 143.009,221.996 Z" class="cls-1"/>
</svg>
