<svg xmlns="http://www.w3.org/2000/svg" xmlns:xlink="http://www.w3.org/1999/xlink" preserveAspectRatio="xMidYMid" width="317" height="255" viewBox="0 0 317 255">
  <defs>
    <style>
      .cls-1 {
        fill: #0da6df;
        fill-rule: evenodd;
      }
    </style>
  </defs>
  <path d="M305.002,201.011 L189.000,201.000 L189.000,213.000 C189.000,221.801 193.177,231.302 203.196,237.195 L213.128,243.174 C214.831,244.345 217.101,246.815 217.101,249.083 C217.101,252.346 214.433,254.992 211.141,254.992 L105.859,254.992 C102.567,254.992 99.899,252.346 99.899,249.083 C99.899,246.276 102.233,244.394 103.872,243.174 L113.804,237.265 C123.823,231.372 128.000,221.801 128.000,213.000 L128.000,201.000 L11.998,201.011 C5.378,201.011 0.011,196.313 0.011,189.697 L0.011,11.959 C0.011,5.358 5.378,0.007 11.998,0.007 L305.002,0.007 C311.622,0.007 316.989,5.358 316.989,11.959 L316.989,189.697 C316.989,196.313 311.622,201.011 305.002,201.011 ZM103.914,249.021 C103.914,250.120 104.802,251.011 105.899,251.011 L211.101,251.011 C212.198,251.011 213.086,250.120 213.086,249.021 C213.086,247.921 212.198,247.031 211.101,247.031 L105.899,247.031 C104.802,247.031 103.914,247.921 103.914,249.021 ZM117.777,239.235 L110.554,243.040 L206.446,243.040 L199.222,239.235 C190.735,233.871 185.000,223.745 185.000,211.000 L185.000,201.000 L132.000,201.000 L132.000,211.000 C132.000,223.745 126.265,233.871 117.777,239.235 ZM312.993,11.959 C312.993,7.559 309.415,3.991 305.002,3.991 L11.998,3.991 C7.584,3.991 4.007,7.559 4.007,11.959 L4.007,189.697 C4.007,194.107 7.584,197.017 11.998,197.017 L305.002,197.017 C309.415,197.017 312.993,194.107 312.993,189.697 L312.993,11.959 ZM300.970,173.982 L17.023,174.013 C14.793,174.013 12.986,172.232 12.986,170.037 L12.986,17.966 C12.986,15.770 14.793,13.990 17.023,13.990 L300.970,13.990 C303.197,13.990 305.002,15.770 305.002,17.965 L305.002,170.007 C305.002,172.202 303.197,173.982 300.970,173.982 ZM301.007,17.965 L16.986,17.966 L16.986,170.037 L301.007,170.007 L301.007,17.965 ZM42.977,48.004 L193.018,48.004 C194.118,48.004 195.010,48.900 195.010,50.004 C195.010,51.109 194.118,52.004 193.018,52.004 L42.977,52.004 C41.877,52.004 40.986,51.109 40.986,50.004 C40.986,48.900 41.877,48.004 42.977,48.004 ZM42.977,57.337 L186.379,57.337 C187.479,57.337 188.371,58.233 188.371,59.337 C188.371,60.441 187.479,61.337 186.379,61.337 L42.977,61.337 C41.877,61.337 40.986,60.441 40.986,59.337 C40.986,58.233 41.877,57.337 42.977,57.337 ZM42.977,66.670 L193.018,66.670 C194.118,66.670 195.010,67.565 195.010,68.670 C195.010,69.774 194.118,70.670 193.018,70.670 L42.977,70.670 C41.877,70.670 40.986,69.774 40.986,68.670 C40.986,67.565 41.877,66.670 42.977,66.670 ZM42.977,76.003 L134.595,76.003 C135.695,76.003 136.587,76.898 136.587,78.002 C136.587,79.107 135.695,80.002 134.595,80.002 L42.977,80.002 C41.877,80.002 40.986,79.107 40.986,78.002 C40.986,76.898 41.877,76.003 42.977,76.003 ZM73.996,91.012 L162.000,91.012 C166.419,91.012 170.001,94.576 170.001,98.972 L170.001,152.038 C170.001,156.434 166.419,159.998 162.000,159.998 L73.996,159.998 C69.577,159.998 65.995,156.434 65.995,152.038 L65.995,98.972 C65.995,94.576 69.577,91.012 73.996,91.012 ZM69.995,152.038 C69.995,154.236 71.786,156.018 73.996,156.018 L162.000,156.018 C164.209,156.018 166.001,154.236 166.001,152.038 L166.001,98.972 C166.001,96.774 164.209,94.992 162.000,94.992 L73.996,94.992 C71.786,94.992 69.995,96.774 69.995,98.972 L69.995,152.038 ZM107.698,106.012 C108.117,106.012 108.508,106.114 108.861,106.283 L138.969,123.931 C139.586,124.419 139.988,125.162 139.988,126.005 C139.988,126.848 139.586,127.591 138.969,128.079 L108.861,145.727 C108.508,145.895 108.117,145.999 107.698,145.999 C106.212,145.999 105.008,144.805 105.008,143.333 L105.008,108.678 C105.008,107.205 106.212,106.012 107.698,106.012 ZM109.080,140.975 L135.879,125.832 L109.080,110.689 L109.080,140.975 ZM225.002,32.005 L273.002,32.005 C275.211,32.005 277.002,33.796 277.002,36.005 L277.002,155.998 C277.002,158.207 275.211,159.998 273.002,159.998 L225.002,159.998 C222.793,159.998 221.003,158.207 221.003,155.998 L221.003,36.005 C221.003,33.796 222.793,32.005 225.002,32.005 ZM225.002,155.998 L273.002,155.998 L273.002,36.005 L225.002,36.005 L225.002,155.998 ZM147.873,36.005 L88.123,36.005 C87.023,36.005 86.131,35.110 86.131,34.005 C86.131,32.901 87.023,32.005 88.123,32.005 L147.873,32.005 C148.973,32.005 149.865,32.901 149.865,34.005 C149.865,35.110 148.973,36.005 147.873,36.005 Z" class="cls-1"/>
</svg>
