<svg xmlns="http://www.w3.org/2000/svg" xmlns:xlink="http://www.w3.org/1999/xlink" preserveAspectRatio="xMidYMid" width="317" height="229" viewBox="0 0 317 229">
  <defs>
    <style>
      .cls-1 {
        fill: #0da6df;
        fill-rule: evenodd;
      }
    </style>
  </defs>
  <path d="M301.006,229.005 L15.993,229.005 C7.167,229.005 0.011,221.852 0.011,213.027 L0.011,15.972 C0.011,7.148 7.167,-0.006 15.993,-0.006 L301.006,-0.006 C309.833,-0.006 316.989,7.148 316.989,15.972 L316.989,213.027 C316.989,221.852 309.833,229.005 301.006,229.005 ZM312.993,15.972 C312.993,9.354 307.627,3.989 301.006,3.989 L15.993,3.989 C9.373,3.989 4.007,9.354 4.007,15.972 L4.007,213.027 C4.007,219.646 9.373,225.010 15.993,225.010 L301.006,225.010 C307.627,225.010 312.993,219.646 312.993,213.027 L312.993,15.972 ZM295.013,201.044 L83.744,201.044 C82.785,207.078 77.571,211.695 71.265,211.695 C64.958,211.695 59.744,207.078 58.785,201.044 L21.987,201.044 C20.883,201.044 19.989,200.150 19.989,199.047 C19.989,197.944 20.883,197.050 21.987,197.050 L58.785,197.050 C59.745,191.015 64.959,186.398 71.265,186.398 C77.571,186.398 82.784,191.015 83.744,197.050 L295.013,197.050 C296.117,197.050 297.011,197.944 297.011,199.047 C297.011,200.150 296.117,201.044 295.013,201.044 ZM71.265,190.393 C66.483,190.393 62.608,194.267 62.608,199.047 C62.608,203.826 66.483,207.701 71.265,207.701 C76.046,207.701 79.921,203.826 79.921,199.047 C79.921,194.267 76.046,190.393 71.265,190.393 ZM289.020,173.083 L201.119,173.083 C196.705,173.083 193.128,169.507 193.128,165.095 L193.128,111.837 C193.128,107.425 196.705,103.848 201.119,103.848 L289.020,103.848 C293.433,103.848 297.011,107.425 297.011,111.837 L297.011,165.095 C297.011,169.507 293.433,173.083 289.020,173.083 ZM293.015,111.837 C293.015,109.631 291.227,107.842 289.020,107.842 L201.119,107.842 C198.912,107.842 197.123,109.631 197.123,111.837 L197.123,165.095 C197.123,167.301 198.912,169.089 201.119,169.089 L289.020,169.089 C291.227,169.089 293.015,167.301 293.015,165.095 L293.015,111.837 ZM235.566,158.166 C235.216,158.335 234.829,158.438 234.415,158.438 C232.944,158.438 231.751,157.245 231.751,155.775 L231.751,121.157 C231.751,119.686 232.944,118.494 234.415,118.494 C234.829,118.494 235.216,118.597 235.566,118.765 L265.370,136.394 C265.980,136.882 266.379,137.624 266.379,138.466 C266.379,139.308 265.980,140.050 265.370,140.538 L235.566,158.166 ZM235.743,123.414 L235.743,153.518 L262.383,138.466 L235.743,123.414 ZM295.013,31.950 L21.987,31.950 C20.883,31.950 19.989,31.055 19.989,29.953 C19.989,28.849 20.883,27.955 21.987,27.955 L295.013,27.955 C296.117,27.955 297.011,28.849 297.011,29.953 C297.011,31.055 296.117,31.950 295.013,31.950 Z" class="cls-1"/>
</svg>
