<svg xmlns="http://www.w3.org/2000/svg" xmlns:xlink="http://www.w3.org/1999/xlink" preserveAspectRatio="xMidYMid" width="317" height="255" viewBox="0 0 317 255">
  <defs>
    <style>
      .cls-1 {
        fill: #0da6df;
        fill-rule: evenodd;
      }
    </style>
  </defs>
  <path d="M305.002,201.011 L189.000,201.000 L189.000,213.000 C189.000,221.801 193.177,231.302 203.196,237.195 L213.128,243.174 C214.831,244.345 217.101,246.815 217.101,249.083 C217.101,252.346 214.433,254.992 211.141,254.992 L105.858,254.992 C102.567,254.992 99.899,252.346 99.899,249.083 C99.899,246.276 102.233,244.393 103.872,243.174 L113.804,237.265 C123.823,231.372 128.000,221.801 128.000,213.000 L128.000,201.000 L11.998,201.011 C5.378,201.011 0.011,196.313 0.011,189.697 L0.011,11.960 C0.011,5.358 5.378,0.007 11.998,0.007 L305.002,0.007 C311.622,0.007 316.989,5.358 316.989,11.960 L316.989,189.697 C316.989,196.313 311.622,201.011 305.002,201.011 ZM103.914,249.021 C103.914,250.120 104.802,251.010 105.899,251.010 L211.101,251.010 C212.198,251.010 213.086,250.120 213.086,249.021 C213.086,247.921 212.198,247.031 211.101,247.031 L105.899,247.031 C104.802,247.031 103.914,247.921 103.914,249.021 ZM117.777,239.234 L110.554,243.040 L206.446,243.040 L199.223,239.234 C190.735,233.871 185.000,223.745 185.000,211.000 L185.000,201.000 L132.000,201.000 L132.000,211.000 C132.000,223.745 126.265,233.871 117.777,239.234 ZM312.993,11.960 C312.993,7.559 309.415,3.991 305.002,3.991 L11.998,3.991 C7.584,3.991 4.007,7.559 4.007,11.960 L4.007,189.697 C4.007,194.107 7.584,197.018 11.998,197.018 L305.002,197.018 C309.415,197.018 312.993,194.107 312.993,189.697 L312.993,11.960 ZM300.965,173.013 L17.023,173.013 C14.793,173.013 12.986,171.232 12.986,169.037 L12.986,17.966 C12.986,15.770 14.793,13.991 17.023,13.991 L300.965,13.991 C303.195,13.991 305.002,15.770 305.002,17.966 L305.002,169.037 C305.002,171.232 303.195,173.013 300.965,173.013 ZM301.002,17.966 L16.986,17.966 L16.986,169.037 L301.002,169.037 L301.002,17.966 ZM35.006,31.005 L283.001,31.005 C285.210,31.005 287.001,32.796 287.001,35.005 L287.001,59.004 C287.001,61.212 285.210,63.003 283.001,63.003 L35.006,63.003 C32.797,63.003 31.007,61.212 31.007,59.004 L31.007,35.005 C31.007,32.796 32.797,31.005 35.006,31.005 ZM35.006,59.004 L283.001,59.004 L283.001,35.005 L35.006,35.005 L35.006,59.004 ZM103.671,79.002 C102.567,79.002 101.671,78.106 101.671,77.002 C101.671,75.897 102.567,75.002 103.671,75.002 L167.670,75.002 C168.775,75.002 169.670,75.897 169.670,77.002 C169.670,78.106 168.775,79.002 167.670,79.002 L103.671,79.002 ZM65.006,91.002 L197.003,91.002 C198.107,91.002 199.003,91.896 199.003,93.001 C199.003,94.106 198.107,95.001 197.003,95.001 L65.006,95.001 C63.901,95.001 63.006,94.106 63.006,93.001 C63.006,91.896 63.901,91.002 65.006,91.002 ZM65.016,101.668 L191.659,101.668 C192.769,101.668 193.670,102.563 193.670,103.667 C193.670,104.772 192.769,105.668 191.659,105.668 L65.016,105.668 C63.906,105.668 63.006,104.772 63.006,103.667 C63.006,102.563 63.906,101.668 65.016,101.668 ZM65.006,112.334 L197.003,112.334 C198.107,112.334 199.003,113.229 199.003,114.333 C199.003,115.438 198.107,116.333 197.003,116.333 L65.006,116.333 C63.901,116.333 63.006,115.438 63.006,114.333 C63.006,113.229 63.901,112.334 65.006,112.334 ZM65.006,123.000 L141.004,123.000 C142.109,123.000 143.004,123.895 143.004,124.999 C143.004,126.104 142.109,126.999 141.004,126.999 L65.006,126.999 C63.901,126.999 63.006,126.104 63.006,124.999 C63.006,123.895 63.901,123.000 65.006,123.000 ZM65.006,133.666 L197.003,133.666 C198.107,133.666 199.003,134.561 199.003,135.666 C199.003,136.771 198.107,137.665 197.003,137.665 L65.006,137.665 C63.901,137.665 63.006,136.771 63.006,135.666 C63.006,134.561 63.901,133.666 65.006,133.666 ZM65.016,144.332 L195.659,144.332 C196.769,144.332 197.669,145.227 197.669,146.332 C197.669,147.436 196.769,148.332 195.659,148.332 L65.016,148.332 C63.906,148.332 63.006,147.436 63.006,146.332 C63.006,145.227 63.906,144.332 65.016,144.332 ZM65.006,154.998 L165.004,154.998 C166.108,154.998 167.004,155.893 167.004,156.998 C167.004,158.103 166.108,158.997 165.004,158.997 L65.006,158.997 C63.901,158.997 63.006,158.103 63.006,156.998 C63.006,155.893 63.901,154.998 65.006,154.998 ZM235.002,75.002 L283.001,75.002 C285.210,75.002 287.001,76.793 287.001,79.002 L287.001,154.998 C287.001,157.207 285.210,158.998 283.001,158.998 L235.002,158.998 C232.793,158.998 231.002,157.207 231.002,154.998 L231.002,79.002 C231.002,76.793 232.793,75.002 235.002,75.002 ZM235.002,154.998 L283.001,154.998 L283.001,79.002 L235.002,79.002 L235.002,154.998 Z" class="cls-1"/>
</svg>
