<?xml version="1.0" encoding="utf-8"?>
<!-- Generator: Adobe Illustrator 19.2.1, SVG Export Plug-In . SVG Version: 6.00 Build 0)  -->
<svg version="1.1" id="Слой_1" xmlns="http://www.w3.org/2000/svg" xmlns:xlink="http://www.w3.org/1999/xlink" x="0px" y="0px"
	 viewBox="0 0 48.6 50" style="enable-background:new 0 0 48.6 50;" xml:space="preserve">
<style type="text/css">
	.st0{fill:#FFFFFF;}
</style>
<g>
	<path class="st0" d="M29.3,50h-10c-0.5,0-0.9-0.4-1-0.8l-1.1-6.6c-1.6-0.7-3.2-1.6-4.6-2.7l-6.2,2.3c-0.5,0.2-1,0-1.2-0.4l-5-8.7
		c-0.2-0.4-0.1-1,0.2-1.3l5.1-4.2c-0.1-0.9-0.2-1.8-0.2-2.7c0-0.9,0.1-1.8,0.2-2.7l-5.1-4.2c-0.4-0.3-0.5-0.8-0.2-1.3l5-8.7
		c0.2-0.4,0.8-0.6,1.2-0.4l6.2,2.3c1.4-1.1,3-2,4.6-2.7l1.1-6.6c0.1-0.5,0.5-0.8,1-0.8h10c0.5,0,0.9,0.4,1,0.8l1.1,6.6
		C33,8,34.6,8.9,36,10.1l6.2-2.3c0.5-0.2,1,0,1.2,0.4l5,8.7c0.2,0.4,0.1,1-0.2,1.3l-5.1,4.2c0.1,0.9,0.2,1.8,0.2,2.7
		c0,0.9-0.1,1.8-0.2,2.7l5.1,4.2c0.4,0.3,0.5,0.8,0.2,1.3l-5,8.7c-0.2,0.4-0.8,0.6-1.2,0.4L36,39.9c-1.4,1.1-3,2-4.6,2.7l-1.1,6.6
		C30.2,49.6,29.8,50,29.3,50z M20.1,48h8.3l1-6.3c0.1-0.4,0.3-0.7,0.6-0.8c1.8-0.7,3.5-1.6,5-2.9c0.3-0.2,0.7-0.3,1-0.2l6,2.2
		l4.2-7.2l-4.9-4c-0.3-0.2-0.4-0.6-0.3-0.9c0.2-1,0.3-2,0.3-2.9c0-0.9-0.1-1.9-0.3-2.9c-0.1-0.4,0.1-0.7,0.3-0.9l4.9-4l-4.2-7.2
		l-6,2.2c-0.3,0.1-0.7,0.1-1-0.2c-1.5-1.3-3.2-2.3-5-2.9c-0.3-0.1-0.6-0.4-0.6-0.8l-1-6.3h-8.3l-1,6.3c-0.1,0.4-0.3,0.7-0.6,0.8
		c-1.8,0.7-3.5,1.6-5,2.9c-0.3,0.2-0.7,0.3-1,0.2l-6-2.2l-4.2,7.2l4.9,4c0.3,0.2,0.4,0.6,0.4,0.9c-0.2,1-0.3,2-0.3,2.9
		c0,1,0.1,1.9,0.3,2.9c0.1,0.4-0.1,0.7-0.4,0.9l-4.9,4l4.2,7.2l6-2.2c0.3-0.1,0.7-0.1,1,0.2c1.5,1.3,3.2,2.3,5,2.9
		c0.3,0.1,0.6,0.4,0.6,0.8L20.1,48z M24.3,33c-4.4,0-8-3.6-8-8s3.6-8,8-8c4.4,0,8,3.6,8,8S28.7,33,24.3,33z M24.3,19
		c-3.3,0-6,2.7-6,6s2.7,6,6,6c3.3,0,6-2.7,6-6S27.6,19,24.3,19z"/>
</g>
</svg>
