<?xml version="1.0" encoding="utf-8"?>
<!-- Generator: Adobe Illustrator 19.2.1, SVG Export Plug-In . SVG Version: 6.00 Build 0)  -->
<svg version="1.1" id="Слой_1" xmlns="http://www.w3.org/2000/svg" xmlns:xlink="http://www.w3.org/1999/xlink" x="0px" y="0px"
	 viewBox="0 0 50 50" style="enable-background:new 0 0 50 50;" xml:space="preserve">
<style type="text/css">
	.st0{fill:#FFFFFF;}
</style>
<g>
	<path class="st0" d="M25,50C11.2,50,0,38.8,0,25S11.2,0,25,0s25,11.2,25,25S38.8,50,25,50z M25,2C12.3,2,2,12.3,2,25
		c0,12.7,10.3,23,23,23c12.7,0,23-10.3,23-23C48,12.3,37.7,2,25,2z M18,37c-0.2,0-0.3,0-0.5-0.1C17.2,36.7,17,36.3,17,36V14
		c0-0.4,0.2-0.7,0.5-0.9c0.3-0.2,0.7-0.2,1,0l19,11c0.3,0.2,0.5,0.5,0.5,0.9s-0.2,0.7-0.5,0.9l-19,11C18.3,36.9,18.2,37,18,37z
		 M19,15.7v18.5L35,25L19,15.7z"/>
</g>
</svg>
