<svg xmlns="http://www.w3.org/2000/svg" xmlns:xlink="http://www.w3.org/1999/xlink" preserveAspectRatio="xMidYMid" width="158" height="128" viewBox="0 0 158 128">
  <defs>
    <style>
      .cls-1 {
        fill: #0da6df;
        fill-rule: evenodd;
      }
    </style>
  </defs>
  <path d="M150.000,102.000 L84.000,102.000 L84.000,108.000 C84.000,109.823 84.163,111.529 84.443,113.083 C101.178,113.645 113.994,116.744 113.994,120.492 C113.994,124.638 98.327,127.999 79.000,127.999 C59.673,127.999 44.006,124.638 44.006,120.492 C44.006,116.743 56.824,113.645 73.562,113.083 C73.838,111.533 74.000,109.828 74.000,108.000 L74.000,102.000 L8.000,102.000 C3.582,102.000 -0.000,98.418 -0.000,94.000 L-0.000,8.000 C-0.000,3.581 3.582,-0.000 8.000,-0.000 L150.000,-0.000 C154.418,-0.000 158.000,3.581 158.000,8.000 L158.000,94.000 C158.000,98.418 154.418,102.000 150.000,102.000 ZM71.755,122.181 C71.088,122.004 70.308,121.253 70.000,121.000 C71.231,119.951 72.373,117.870 73.119,115.089 C58.270,115.565 47.009,117.796 47.009,120.490 C47.009,123.530 61.332,125.995 79.000,125.995 C96.668,125.995 110.990,123.530 110.990,120.490 C110.990,117.797 99.734,115.566 84.889,115.089 C85.636,117.858 86.774,119.945 88.000,121.000 C87.522,120.922 86.919,122.169 86.245,122.181 C84.108,119.725 82.000,114.423 82.000,105.000 L82.000,102.000 L76.000,102.000 L76.000,105.000 C76.000,114.431 73.891,119.729 71.755,122.181 ZM156.000,8.000 C156.000,4.686 153.314,2.000 150.000,2.000 L8.000,2.000 C4.686,2.000 2.000,4.686 2.000,8.000 L2.000,94.000 C2.000,97.313 4.686,100.000 8.000,100.000 L150.000,100.000 C153.314,100.000 156.000,97.313 156.000,94.000 L156.000,8.000 ZM149.000,95.000 L9.000,95.000 C7.895,95.000 7.000,94.104 7.000,93.000 L7.000,9.000 C7.000,7.895 7.895,7.000 9.000,7.000 L149.000,7.000 C150.104,7.000 151.000,7.895 151.000,9.000 L151.000,93.000 C151.000,94.104 150.104,95.000 149.000,95.000 ZM149.000,9.000 L9.000,9.000 L9.000,93.000 L149.000,93.000 L149.000,9.000 ZM99.552,43.545 C100.120,44.115 100.120,45.039 99.552,45.608 C98.984,46.178 98.064,46.178 97.496,45.608 C87.272,35.356 70.696,35.356 60.473,45.608 C59.905,46.178 58.984,46.178 58.416,45.608 C57.848,45.039 57.848,44.115 58.416,43.545 C69.776,32.154 88.193,32.154 99.552,43.545 ZM94.562,48.461 C95.136,49.038 95.136,49.971 94.562,50.548 C93.989,51.123 93.059,51.123 92.485,50.548 C92.481,50.543 92.480,50.538 92.476,50.534 C85.021,43.060 72.947,43.060 65.492,50.533 C65.488,50.538 65.487,50.543 65.483,50.548 C64.909,51.123 63.979,51.123 63.406,50.548 C62.832,49.971 62.832,49.038 63.406,48.461 C72.009,39.821 85.959,39.821 94.562,48.461 ZM68.408,53.394 C74.249,47.533 83.719,47.533 89.559,53.394 L89.549,53.404 C90.133,53.990 90.133,54.940 89.549,55.525 C88.966,56.111 88.020,56.111 87.436,55.525 C87.415,55.504 87.408,55.475 87.389,55.453 C82.728,50.840 75.239,50.840 70.578,55.454 C70.559,55.476 70.552,55.504 70.531,55.525 C69.948,56.111 69.002,56.111 68.418,55.525 C67.835,54.940 67.835,53.990 68.418,53.405 L68.408,53.394 ZM78.999,57.009 C82.309,57.009 84.992,59.695 84.992,63.007 C84.992,66.320 82.309,69.005 78.999,69.005 C75.690,69.005 73.007,66.320 73.007,63.007 C73.007,59.695 75.690,57.009 78.999,57.009 ZM78.984,66.006 C80.634,66.006 81.972,64.664 81.972,63.007 C81.972,61.351 80.634,60.008 78.984,60.008 C77.333,60.008 75.995,61.351 75.995,63.007 C75.995,64.664 77.333,66.006 78.984,66.006 Z" class="cls-1"/>
</svg>
