<svg xmlns="http://www.w3.org/2000/svg" xmlns:xlink="http://www.w3.org/1999/xlink" preserveAspectRatio="xMidYMid" width="158" height="128" viewBox="0 0 158 128">
  <defs>
    <style>
      .cls-1 {
        fill: #0da6df;
        fill-rule: evenodd;
      }
    </style>
  </defs>
  <path d="M150.000,128.000 L8.000,128.000 C3.582,128.000 -0.000,124.418 -0.000,120.000 L-0.000,8.000 C-0.000,3.582 3.582,-0.000 8.000,-0.000 L150.000,-0.000 C154.418,-0.000 158.000,3.582 158.000,8.000 L158.000,120.000 C158.000,124.418 154.418,128.000 150.000,128.000 ZM156.000,8.000 C156.000,4.686 153.314,2.000 150.000,2.000 L8.000,2.000 C4.686,2.000 2.000,4.686 2.000,8.000 L2.000,120.000 C2.000,123.314 4.686,126.000 8.000,126.000 L150.000,126.000 C153.314,126.000 156.000,123.314 156.000,120.000 L156.000,8.000 ZM143.000,114.000 L40.899,114.000 C40.421,116.835 37.971,119.000 35.000,119.000 C32.029,119.000 29.579,116.835 29.101,114.000 L15.000,114.000 C14.448,114.000 14.000,113.552 14.000,113.000 C14.000,112.448 14.448,112.000 15.000,112.000 L29.101,112.000 C29.579,109.165 32.029,107.000 35.000,107.000 C37.971,107.000 40.421,109.165 40.899,112.000 L143.000,112.000 C143.552,112.000 144.000,112.448 144.000,113.000 C144.000,113.552 143.552,114.000 143.000,114.000 ZM35.000,109.000 C32.791,109.000 31.000,110.791 31.000,113.000 C31.000,115.209 32.791,117.000 35.000,117.000 C37.209,117.000 39.000,115.209 39.000,113.000 C39.000,110.791 37.209,109.000 35.000,109.000 ZM64.997,90.724 C64.703,90.895 64.365,91.000 64.000,91.000 C62.895,91.000 62.000,90.104 62.000,88.999 L62.000,39.000 C62.000,37.895 62.895,37.000 64.000,37.000 C64.365,37.000 64.703,37.105 64.997,37.276 L108.133,62.353 C108.656,62.714 109.000,63.316 109.000,64.000 C109.000,64.683 108.656,65.285 108.133,65.646 L64.997,90.724 ZM63.989,38.994 L63.989,89.006 L106.989,64.000 L63.989,38.994 Z" class="cls-1"/>
</svg>
