<svg id="SvgjsSvg1008" xmlns="http://www.w3.org/2000/svg" version="1.1" xmlns:xlink="http://www.w3.org/1999/xlink" xmlns:svgjs="http://svgjs.com/svgjs" width="98" height="88" viewBox="0 0 98 88"><defs id="SvgjsDefs1009"><clipPath id="SvgjsClipPath1013"><path id="SvgjsPath1012" d="M763 1590L729 1590L729 1594C729 1601.25 734 1604 734 1604C734.142 1604.12 735 1605.12 735 1606C735 1607.1 734.105 1608 733 1608L707 1608C705.895 1608 705 1607.1 705 1606C705 1605.15 705.843 1604.06 706 1604C706 1604 711 1601.33 711 1594L711 1590L677 1590C673.686 1590 671 1587.31 671 1584L671 1526C671 1522.69 673.686 1520 677 1520L763 1520C766.314 1520 769 1522.69 769 1526L769 1584C769 1587.31 766.314 1590 763 1590ZM767 1526C767 1523.79 765.209 1522 763 1522L677 1522C674.791 1522 673 1523.79 673 1526L673 1584C673 1586.21 674.791 1588 677 1588L763 1588C765.209 1588 767 1586.21 767 1584ZM762 1579L678 1579C676.895 1579 676 1578.1 676 1577L676 1527C676 1525.9 676.895 1525 678 1525L762 1525C763.105 1525 764 1525.9 764 1527L764 1577C764 1578.1 763.105 1579 762 1579ZM762 1527L678 1527L678 1577L762 1577ZM727 1592L727 1590L713 1590L713 1592C713 1602.14 709 1604 709 1604C708.541 1604.31 707 1605.22 707 1605.5C707 1605.78 707.448 1606 708 1606L732 1606C732.552 1606 733 1605.78 733 1605.5C733 1605.22 731.521 1604.37 731 1604C731 1604 727 1602.13 727 1592ZM699 1546L741 1546C741.552 1546 742 1546.45 742 1547C742 1547.55 741.552 1548 741 1548L699 1548C698.448 1548 698 1547.55 698 1547C698 1546.45 698.448 1546 699 1546ZM699 1556L741 1556C741.552 1556 742 1556.45 742 1557C742 1557.55 741.552 1558 741 1558L699 1558C698.448 1558 698 1557.55 698 1557C698 1556.45 698.448 1556 699 1556ZM699 1561L740 1561C740.552 1561 741 1561.45 741 1562C741 1562.55 740.552 1563 740 1563L699 1563C698.448 1563 698 1562.55 698 1562C698 1561.45 698.448 1561 699 1561ZM699 1551L738 1551C738.552 1551 739 1551.45 739 1552C739 1552.55 738.552 1553 738 1553L699 1553C698.448 1553 698 1552.55 698 1552C698 1551.45 698.448 1551 699 1551ZM704 1537L736 1537C736.552 1537 737 1537.45 737 1538C737 1538.55 736.552 1539 736 1539L704 1539C703.448 1539 703 1538.55 703 1538C703 1537.45 703.448 1537 704 1537ZM699 1566L725 1566C725.552 1566 726 1566.45 726 1567C726 1567.55 725.552 1568 725 1568L699 1568C698.448 1568 698 1567.55 698 1567C698 1566.45 698.448 1566 699 1566Z " fill="#ffffff"></path></clipPath></defs><path id="SvgjsPath1010" d="M763 1590L729 1590L729 1594C729 1601.25 734 1604 734 1604C734.142 1604.12 735 1605.12 735 1606C735 1607.1 734.105 1608 733 1608L707 1608C705.895 1608 705 1607.1 705 1606C705 1605.15 705.843 1604.06 706 1604C706 1604 711 1601.33 711 1594L711 1590L677 1590C673.686 1590 671 1587.31 671 1584L671 1526C671 1522.69 673.686 1520 677 1520L763 1520C766.314 1520 769 1522.69 769 1526L769 1584C769 1587.31 766.314 1590 763 1590ZM767 1526C767 1523.79 765.209 1522 763 1522L677 1522C674.791 1522 673 1523.79 673 1526L673 1584C673 1586.21 674.791 1588 677 1588L763 1588C765.209 1588 767 1586.21 767 1584ZM762 1579L678 1579C676.895 1579 676 1578.1 676 1577L676 1527C676 1525.9 676.895 1525 678 1525L762 1525C763.105 1525 764 1525.9 764 1527L764 1577C764 1578.1 763.105 1579 762 1579ZM762 1527L678 1527L678 1577L762 1577ZM727 1592L727 1590L713 1590L713 1592C713 1602.14 709 1604 709 1604C708.541 1604.31 707 1605.22 707 1605.5C707 1605.78 707.448 1606 708 1606L732 1606C732.552 1606 733 1605.78 733 1605.5C733 1605.22 731.521 1604.37 731 1604C731 1604 727 1602.13 727 1592ZM699 1546L741 1546C741.552 1546 742 1546.45 742 1547C742 1547.55 741.552 1548 741 1548L699 1548C698.448 1548 698 1547.55 698 1547C698 1546.45 698.448 1546 699 1546ZM699 1556L741 1556C741.552 1556 742 1556.45 742 1557C742 1557.55 741.552 1558 741 1558L699 1558C698.448 1558 698 1557.55 698 1557C698 1556.45 698.448 1556 699 1556ZM699 1561L740 1561C740.552 1561 741 1561.45 741 1562C741 1562.55 740.552 1563 740 1563L699 1563C698.448 1563 698 1562.55 698 1562C698 1561.45 698.448 1561 699 1561ZM699 1551L738 1551C738.552 1551 739 1551.45 739 1552C739 1552.55 738.552 1553 738 1553L699 1553C698.448 1553 698 1552.55 698 1552C698 1551.45 698.448 1551 699 1551ZM704 1537L736 1537C736.552 1537 737 1537.45 737 1538C737 1538.55 736.552 1539 736 1539L704 1539C703.448 1539 703 1538.55 703 1538C703 1537.45 703.448 1537 704 1537ZM699 1566L725 1566C725.552 1566 726 1566.45 726 1567C726 1567.55 725.552 1568 725 1568L699 1568C698.448 1568 698 1567.55 698 1567C698 1566.45 698.448 1566 699 1566Z " fill="#ffffff" transform="matrix(1,0,0,1,-671,-1520)"></path><path id="SvgjsPath1011" d="M763 1590L729 1590L729 1594C729 1601.25 734 1604 734 1604C734.142 1604.12 735 1605.12 735 1606C735 1607.1 734.105 1608 733 1608L707 1608C705.895 1608 705 1607.1 705 1606C705 1605.15 705.843 1604.06 706 1604C706 1604 711 1601.33 711 1594L711 1590L677 1590C673.686 1590 671 1587.31 671 1584L671 1526C671 1522.69 673.686 1520 677 1520L763 1520C766.314 1520 769 1522.69 769 1526L769 1584C769 1587.31 766.314 1590 763 1590ZM767 1526C767 1523.79 765.209 1522 763 1522L677 1522C674.791 1522 673 1523.79 673 1526L673 1584C673 1586.21 674.791 1588 677 1588L763 1588C765.209 1588 767 1586.21 767 1584ZM762 1579L678 1579C676.895 1579 676 1578.1 676 1577L676 1527C676 1525.9 676.895 1525 678 1525L762 1525C763.105 1525 764 1525.9 764 1527L764 1577C764 1578.1 763.105 1579 762 1579ZM762 1527L678 1527L678 1577L762 1577ZM727 1592L727 1590L713 1590L713 1592C713 1602.14 709 1604 709 1604C708.541 1604.31 707 1605.22 707 1605.5C707 1605.78 707.448 1606 708 1606L732 1606C732.552 1606 733 1605.78 733 1605.5C733 1605.22 731.521 1604.37 731 1604C731 1604 727 1602.13 727 1592ZM699 1546L741 1546C741.552 1546 742 1546.45 742 1547C742 1547.55 741.552 1548 741 1548L699 1548C698.448 1548 698 1547.55 698 1547C698 1546.45 698.448 1546 699 1546ZM699 1556L741 1556C741.552 1556 742 1556.45 742 1557C742 1557.55 741.552 1558 741 1558L699 1558C698.448 1558 698 1557.55 698 1557C698 1556.45 698.448 1556 699 1556ZM699 1561L740 1561C740.552 1561 741 1561.45 741 1562C741 1562.55 740.552 1563 740 1563L699 1563C698.448 1563 698 1562.55 698 1562C698 1561.45 698.448 1561 699 1561ZM699 1551L738 1551C738.552 1551 739 1551.45 739 1552C739 1552.55 738.552 1553 738 1553L699 1553C698.448 1553 698 1552.55 698 1552C698 1551.45 698.448 1551 699 1551ZM704 1537L736 1537C736.552 1537 737 1537.45 737 1538C737 1538.55 736.552 1539 736 1539L704 1539C703.448 1539 703 1538.55 703 1538C703 1537.45 703.448 1537 704 1537ZM699 1566L725 1566C725.552 1566 726 1566.45 726 1567C726 1567.55 725.552 1568 725 1568L699 1568C698.448 1568 698 1567.55 698 1567C698 1566.45 698.448 1566 699 1566Z " fill-opacity="0" fill="#ffffff" stroke-dasharray="0" stroke-linejoin="miter" stroke-linecap="butt" stroke-opacity="1" stroke="#0da6df" stroke-miterlimit="50" stroke-width="4" clip-path="url(&quot;#SvgjsClipPath1013&quot;)" transform="matrix(1,0,0,1,-671,-1520)"></path></svg>