<svg id="SvgjsSvg1014" xmlns="http://www.w3.org/2000/svg" version="1.1" xmlns:xlink="http://www.w3.org/1999/xlink" xmlns:svgjs="http://svgjs.com/svgjs" width="98" height="88" viewBox="0 0 98 88"><defs id="SvgjsDefs1015"><clipPath id="SvgjsClipPath1019"><path id="SvgjsPath1018" d="M1013 1590L974 1590L974 1594C974 1595.58821 974.14916 1596.93886 974.39898 1598.08385C985.5530200000001 1598.51453 994 1600.55287 994 1603C994 1605.76 983.255 1608 970 1608C956.745 1608 946 1605.76 946 1603C946 1600.55253 954.44937 1598.51396 965.60574 1598.08367C965.85276 1596.94131 966 1595.59144 966 1594L966 1590L927 1590C923.686 1590 921 1587.31 921 1584L921 1526C921 1522.69 923.686 1520 927 1520L1013 1520C1016.31 1520 1019 1522.69 1019 1526L1019 1584C1019 1587.31 1016.31 1590 1013 1590ZM1017 1526C1017 1523.79 1015.21 1522 1013 1522L927 1522C924.791 1522 923 1523.79 923 1526L923 1584C923 1586.21 924.791 1588 927 1588L1013 1588C1015.21 1588 1017 1586.21 1017 1584ZM1012 1585L928 1585C926.895 1585 926 1584.1 926 1583L926 1527C926 1525.9 926.895 1525 928 1525L1012 1525C1013.1 1525 1014 1525.9 1014 1527L1014 1583C1014 1584.1 1013.1 1585 1012 1585ZM1012 1527L928 1527L928 1583L1012 1583ZM964.9994 1600.0854C955.8156700000001 1600.40526 949 1601.58664 949 1603C949 1604.66 958.402 1606 970 1606C981.598 1606 991 1604.66 991 1603C991 1601.58707 984.18846 1600.40597 975.00895 1600.08569C975.5678800000001 1601.45972 976.29139 1602.3918 977 1603C976.325 1603.18 975.925 1603.88 975 1604C973.525 1602.31 972 1598.48 972 1592L972 1590L968 1590L968 1592C968 1598.48 966.474 1602.31 965 1604C964.079 1603.88 963.673 1603.17 963 1603C963.71278 1602.39389 964.43967 1601.46568 964.9994 1600.0854ZM982.72624 1551.26824C975.6967199999999 1544.24062 964.30242 1544.2405800000001 957.27386 1551.2681400000001C957.27324 1551.2687600000002 957.27262 1551.2693800000002 957.272 1551.2700000000002C956.8820000000001 1551.6600000000003 956.248 1551.6600000000003 955.8580000000001 1551.2700000000002C955.4670000000001 1550.88 955.4670000000001 1550.2500000000002 955.8580000000001 1549.8600000000001C963.668 1542.0500000000002 976.3320000000001 1542.0500000000002 984.142 1549.8600000000001C984.533 1550.2500000000002 984.533 1550.88 984.142 1551.2700000000002C983.7520000000001 1551.6600000000003 983.118 1551.6600000000003 982.7280000000001 1551.2700000000002C982.7274100000001 1551.26941 982.7268300000001 1551.2688300000002 982.7262400000001 1551.26824ZM979.15652 1554.77266C974.08809 1549.7424500000002 965.91191 1549.7424500000002 960.84347 1554.77266C960.83203 1554.7853400000001 960.8202 1554.79779 960.80799 1554.8100000000002C960.41699 1555.2000000000003 959.78399 1555.2000000000003 959.39299 1554.8100000000002C959.0029900000001 1554.42 959.0029900000001 1553.7800000000002 959.39299 1553.39C965.25099 1547.5400000000002 974.74899 1547.5400000000002 980.60699 1553.39C980.99699 1553.7800000000002 980.99699 1554.42 980.60699 1554.8100000000002C980.21599 1555.2000000000003 979.58299 1555.2000000000003 979.19199 1554.8100000000002C979.17978 1554.79779 979.16796 1554.7853400000001 979.15651 1554.77266ZM977.078 1556.92L977.0695 1556.9285C977.0699999999999 1556.929 977.0704999999999 1556.9295 977.0709999999999 1556.93C977.4619999999999 1557.3200000000002 977.4619999999999 1557.95 977.0709999999999 1558.3400000000001C976.6809999999999 1558.7300000000002 976.0469999999999 1558.7300000000002 975.6569999999999 1558.3400000000001C975.61831 1558.30141 975.58345 1558.2604700000002 975.5524099999999 1558.21764C972.4528399999999 1555.23745 967.5471499999999 1555.23745 964.4475799999999 1558.21764C964.4165499999999 1558.2604700000002 964.3816799999998 1558.30141 964.3429899999999 1558.3400000000001C963.9529899999999 1558.7300000000002 963.3189899999999 1558.7300000000002 962.9289899999999 1558.3400000000001C962.5379899999999 1557.95 962.5379899999999 1557.3200000000002 962.9289899999999 1556.93C962.9294899999999 1556.9295 962.9299899999999 1556.929 962.9304899999998 1556.9285L962.9219899999998 1556.92C966.8309899999998 1553.01 973.1689899999998 1553.01 977.0779899999998 1556.92ZM970 1560C972.209 1560 974 1561.79 974 1564C974 1566.21 972.209 1568 970 1568C967.791 1568 966 1566.21 966 1564C966 1561.79 967.791 1560 970 1560ZM968 1564C968 1565.1 968.895 1566 970 1566C971.105 1566 972 1565.1 972 1564C972 1562.9 971.105 1562 970 1562C968.895 1562 968 1562.9 968 1564Z " fill="#ffffff"></path></clipPath></defs><path id="SvgjsPath1016" d="M1013 1590L974 1590L974 1594C974 1595.58821 974.14916 1596.93886 974.39898 1598.08385C985.5530200000001 1598.51453 994 1600.55287 994 1603C994 1605.76 983.255 1608 970 1608C956.745 1608 946 1605.76 946 1603C946 1600.55253 954.44937 1598.51396 965.60574 1598.08367C965.85276 1596.94131 966 1595.59144 966 1594L966 1590L927 1590C923.686 1590 921 1587.31 921 1584L921 1526C921 1522.69 923.686 1520 927 1520L1013 1520C1016.31 1520 1019 1522.69 1019 1526L1019 1584C1019 1587.31 1016.31 1590 1013 1590ZM1017 1526C1017 1523.79 1015.21 1522 1013 1522L927 1522C924.791 1522 923 1523.79 923 1526L923 1584C923 1586.21 924.791 1588 927 1588L1013 1588C1015.21 1588 1017 1586.21 1017 1584ZM1012 1585L928 1585C926.895 1585 926 1584.1 926 1583L926 1527C926 1525.9 926.895 1525 928 1525L1012 1525C1013.1 1525 1014 1525.9 1014 1527L1014 1583C1014 1584.1 1013.1 1585 1012 1585ZM1012 1527L928 1527L928 1583L1012 1583ZM964.9994 1600.0854C955.8156700000001 1600.40526 949 1601.58664 949 1603C949 1604.66 958.402 1606 970 1606C981.598 1606 991 1604.66 991 1603C991 1601.58707 984.18846 1600.40597 975.00895 1600.08569C975.5678800000001 1601.45972 976.29139 1602.3918 977 1603C976.325 1603.18 975.925 1603.88 975 1604C973.525 1602.31 972 1598.48 972 1592L972 1590L968 1590L968 1592C968 1598.48 966.474 1602.31 965 1604C964.079 1603.88 963.673 1603.17 963 1603C963.71278 1602.39389 964.43967 1601.46568 964.9994 1600.0854ZM982.72624 1551.26824C975.6967199999999 1544.24062 964.30242 1544.2405800000001 957.27386 1551.2681400000001C957.27324 1551.2687600000002 957.27262 1551.2693800000002 957.272 1551.2700000000002C956.8820000000001 1551.6600000000003 956.248 1551.6600000000003 955.8580000000001 1551.2700000000002C955.4670000000001 1550.88 955.4670000000001 1550.2500000000002 955.8580000000001 1549.8600000000001C963.668 1542.0500000000002 976.3320000000001 1542.0500000000002 984.142 1549.8600000000001C984.533 1550.2500000000002 984.533 1550.88 984.142 1551.2700000000002C983.7520000000001 1551.6600000000003 983.118 1551.6600000000003 982.7280000000001 1551.2700000000002C982.7274100000001 1551.26941 982.7268300000001 1551.2688300000002 982.7262400000001 1551.26824ZM979.15652 1554.77266C974.08809 1549.7424500000002 965.91191 1549.7424500000002 960.84347 1554.77266C960.83203 1554.7853400000001 960.8202 1554.79779 960.80799 1554.8100000000002C960.41699 1555.2000000000003 959.78399 1555.2000000000003 959.39299 1554.8100000000002C959.0029900000001 1554.42 959.0029900000001 1553.7800000000002 959.39299 1553.39C965.25099 1547.5400000000002 974.74899 1547.5400000000002 980.60699 1553.39C980.99699 1553.7800000000002 980.99699 1554.42 980.60699 1554.8100000000002C980.21599 1555.2000000000003 979.58299 1555.2000000000003 979.19199 1554.8100000000002C979.17978 1554.79779 979.16796 1554.7853400000001 979.15651 1554.77266ZM977.078 1556.92L977.0695 1556.9285C977.0699999999999 1556.929 977.0704999999999 1556.9295 977.0709999999999 1556.93C977.4619999999999 1557.3200000000002 977.4619999999999 1557.95 977.0709999999999 1558.3400000000001C976.6809999999999 1558.7300000000002 976.0469999999999 1558.7300000000002 975.6569999999999 1558.3400000000001C975.61831 1558.30141 975.58345 1558.2604700000002 975.5524099999999 1558.21764C972.4528399999999 1555.23745 967.5471499999999 1555.23745 964.4475799999999 1558.21764C964.4165499999999 1558.2604700000002 964.3816799999998 1558.30141 964.3429899999999 1558.3400000000001C963.9529899999999 1558.7300000000002 963.3189899999999 1558.7300000000002 962.9289899999999 1558.3400000000001C962.5379899999999 1557.95 962.5379899999999 1557.3200000000002 962.9289899999999 1556.93C962.9294899999999 1556.9295 962.9299899999999 1556.929 962.9304899999998 1556.9285L962.9219899999998 1556.92C966.8309899999998 1553.01 973.1689899999998 1553.01 977.0779899999998 1556.92ZM970 1560C972.209 1560 974 1561.79 974 1564C974 1566.21 972.209 1568 970 1568C967.791 1568 966 1566.21 966 1564C966 1561.79 967.791 1560 970 1560ZM968 1564C968 1565.1 968.895 1566 970 1566C971.105 1566 972 1565.1 972 1564C972 1562.9 971.105 1562 970 1562C968.895 1562 968 1562.9 968 1564Z " fill="#ffffff" transform="matrix(1,0,0,1,-921,-1520)"></path><path id="SvgjsPath1017" d="M1013 1590L974 1590L974 1594C974 1595.58821 974.14916 1596.93886 974.39898 1598.08385C985.5530200000001 1598.51453 994 1600.55287 994 1603C994 1605.76 983.255 1608 970 1608C956.745 1608 946 1605.76 946 1603C946 1600.55253 954.44937 1598.51396 965.60574 1598.08367C965.85276 1596.94131 966 1595.59144 966 1594L966 1590L927 1590C923.686 1590 921 1587.31 921 1584L921 1526C921 1522.69 923.686 1520 927 1520L1013 1520C1016.31 1520 1019 1522.69 1019 1526L1019 1584C1019 1587.31 1016.31 1590 1013 1590ZM1017 1526C1017 1523.79 1015.21 1522 1013 1522L927 1522C924.791 1522 923 1523.79 923 1526L923 1584C923 1586.21 924.791 1588 927 1588L1013 1588C1015.21 1588 1017 1586.21 1017 1584ZM1012 1585L928 1585C926.895 1585 926 1584.1 926 1583L926 1527C926 1525.9 926.895 1525 928 1525L1012 1525C1013.1 1525 1014 1525.9 1014 1527L1014 1583C1014 1584.1 1013.1 1585 1012 1585ZM1012 1527L928 1527L928 1583L1012 1583ZM964.9994 1600.0854C955.8156700000001 1600.40526 949 1601.58664 949 1603C949 1604.66 958.402 1606 970 1606C981.598 1606 991 1604.66 991 1603C991 1601.58707 984.18846 1600.40597 975.00895 1600.08569C975.5678800000001 1601.45972 976.29139 1602.3918 977 1603C976.325 1603.18 975.925 1603.88 975 1604C973.525 1602.31 972 1598.48 972 1592L972 1590L968 1590L968 1592C968 1598.48 966.474 1602.31 965 1604C964.079 1603.88 963.673 1603.17 963 1603C963.71278 1602.39389 964.43967 1601.46568 964.9994 1600.0854ZM982.72624 1551.26824C975.6967199999999 1544.24062 964.30242 1544.2405800000001 957.27386 1551.2681400000001C957.27324 1551.2687600000002 957.27262 1551.2693800000002 957.272 1551.2700000000002C956.8820000000001 1551.6600000000003 956.248 1551.6600000000003 955.8580000000001 1551.2700000000002C955.4670000000001 1550.88 955.4670000000001 1550.2500000000002 955.8580000000001 1549.8600000000001C963.668 1542.0500000000002 976.3320000000001 1542.0500000000002 984.142 1549.8600000000001C984.533 1550.2500000000002 984.533 1550.88 984.142 1551.2700000000002C983.7520000000001 1551.6600000000003 983.118 1551.6600000000003 982.7280000000001 1551.2700000000002C982.7274100000001 1551.26941 982.7268300000001 1551.2688300000002 982.7262400000001 1551.26824ZM979.15652 1554.77266C974.08809 1549.7424500000002 965.91191 1549.7424500000002 960.84347 1554.77266C960.83203 1554.7853400000001 960.8202 1554.79779 960.80799 1554.8100000000002C960.41699 1555.2000000000003 959.78399 1555.2000000000003 959.39299 1554.8100000000002C959.0029900000001 1554.42 959.0029900000001 1553.7800000000002 959.39299 1553.39C965.25099 1547.5400000000002 974.74899 1547.5400000000002 980.60699 1553.39C980.99699 1553.7800000000002 980.99699 1554.42 980.60699 1554.8100000000002C980.21599 1555.2000000000003 979.58299 1555.2000000000003 979.19199 1554.8100000000002C979.17978 1554.79779 979.16796 1554.7853400000001 979.15651 1554.77266ZM977.078 1556.92L977.0695 1556.9285C977.0699999999999 1556.929 977.0704999999999 1556.9295 977.0709999999999 1556.93C977.4619999999999 1557.3200000000002 977.4619999999999 1557.95 977.0709999999999 1558.3400000000001C976.6809999999999 1558.7300000000002 976.0469999999999 1558.7300000000002 975.6569999999999 1558.3400000000001C975.61831 1558.30141 975.58345 1558.2604700000002 975.5524099999999 1558.21764C972.4528399999999 1555.23745 967.5471499999999 1555.23745 964.4475799999999 1558.21764C964.4165499999999 1558.2604700000002 964.3816799999998 1558.30141 964.3429899999999 1558.3400000000001C963.9529899999999 1558.7300000000002 963.3189899999999 1558.7300000000002 962.9289899999999 1558.3400000000001C962.5379899999999 1557.95 962.5379899999999 1557.3200000000002 962.9289899999999 1556.93C962.9294899999999 1556.9295 962.9299899999999 1556.929 962.9304899999998 1556.9285L962.9219899999998 1556.92C966.8309899999998 1553.01 973.1689899999998 1553.01 977.0779899999998 1556.92ZM970 1560C972.209 1560 974 1561.79 974 1564C974 1566.21 972.209 1568 970 1568C967.791 1568 966 1566.21 966 1564C966 1561.79 967.791 1560 970 1560ZM968 1564C968 1565.1 968.895 1566 970 1566C971.105 1566 972 1565.1 972 1564C972 1562.9 971.105 1562 970 1562C968.895 1562 968 1562.9 968 1564Z " fill-opacity="0" fill="#ffffff" stroke-dasharray="0" stroke-linejoin="miter" stroke-linecap="butt" stroke-opacity="1" stroke="#0da6df" stroke-miterlimit="50" stroke-width="4" clip-path="url(&quot;#SvgjsClipPath1019&quot;)" transform="matrix(1,0,0,1,-921,-1520)"></path></svg>